<?xml version="1.0" standalone="no"?>
<!DOCTYPE svg PUBLIC "-//W3C//DTD SVG 1.1//EN" "http://www.w3.org/Graphics/SVG/1.1/DTD/svg11.dtd" >
<svg>
<metadata>
Created by FontForge 20120731 at Mon Jul  1 17:59:15 2019
 By www
Published by Die Gestalten Verlag GmbH &#38; Co. KG, 2012
Copyright (c) by Binnenland, 2006, Designed by Mika Mischler / 2002-2006, revised and extended 2012 All rights reserved. This software may not be reproduced, used, displayed, modified, disclosed or transferred without the express written approval of (Binnenland).
</metadata>
<defs>
<font id="TSTARW00-Heavy" horiz-adv-x="516" >
  <font-face 
    font-family="TSTARW00-Heavy"
    font-weight="900"
    font-stretch="normal"
    units-per-em="1000"
    panose-1="2 0 8 6 3 0 0 2 0 4"
    ascent="800"
    descent="-200"
    x-height="525"
    cap-height="712"
    bbox="-39 -221 1140 974"
    underline-thickness="50"
    underline-position="-75"
    unicode-range="U+0020-FB02"
  />
<missing-glyph horiz-adv-x="250" 
 />
    <glyph glyph-name=".notdef" horiz-adv-x="250" 
 />
    <glyph glyph-name=".null" horiz-adv-x="0" 
 />
    <glyph glyph-name="nonmarkingreturn" horiz-adv-x="333" 
 />
    <glyph glyph-name="space" unicode=" " horiz-adv-x="250" 
 />
    <glyph glyph-name="exclam" unicode="!" horiz-adv-x="270" 
d="M198 216h-125v496h125v-496zM208 0h-145v146h145v-146z" />
    <glyph glyph-name="quotedbl" unicode="&#x22;" horiz-adv-x="351" 
d="M157 547h-101v206h101v-206zM297 547h-101v206h101v-206z" />
    <glyph glyph-name="numbersign" unicode="#" horiz-adv-x="631" 
d="M569 390h-105l-13 -79h90v-102h-105l-31 -191h-104l28 191h-77l-33 -191h-106l31 191h-81v102h97l14 79h-82v101h95l30 175h107l-28 -175h77l31 175h105l-30 -175h90v-101zM359 390h-79l-14 -79h79z" />
    <glyph glyph-name="dollar" unicode="$" horiz-adv-x="511" 
d="M478 197q0 -54 -24 -95.5t-60 -67t-80 -36.5v-78h-123v79q-46 11 -80 39t-55.5 73t-21.5 105h130q0 -21 8.5 -44.5t31 -38.5t50.5 -15q43 0 69.5 23t26.5 58q0 47 -49 75q-23 14 -154 80q-44 22 -73 69t-29 101q0 71 41 120.5t105 65.5v78h123v-77q71 -19 113.5 -76.5
t42.5 -136.5h-131q0 43 -23 68.5t-62 25.5q-35 0 -57.5 -19t-22.5 -51q0 -36 42 -58l146 -75q56 -30 86 -80t30 -112z" />
    <glyph glyph-name="percent" unicode="%" horiz-adv-x="851" 
d="M789 147q0 -63 -39.5 -100.5t-103.5 -37.5t-103 37.5t-39 100.5v93q0 64 39 102.5t103 38.5q65 0 104 -38t39 -103v-93zM681 148v93q0 34 -35 34q-34 0 -34 -34v-93q0 -33 34 -33q35 0 35 33zM347 446q0 -63 -39.5 -100.5t-103.5 -37.5t-103 37.5t-39 100.5v93
q0 64 39 102.5t103 38.5q65 0 104 -38t39 -103v-93zM239 447v93q0 34 -35 34q-34 0 -34 -34v-93q0 -33 34 -33q35 0 35 33zM602 749l-260 -799h-90l261 799h89z" />
    <glyph glyph-name="ampersand" unicode="&#x26;" horiz-adv-x="644" 
d="M277 121q23 0 44.5 9.5t32.5 28t14 37.5l-123 104q-61 -38 -61 -92q0 -41 25 -64t68 -23zM486 527h-131q0 61 -71 61t-71 -61q0 -14 6 -26.5t29 -32.5l334 -282l-83 -104l-24 23q-28 -56 -83 -84.5t-115 -28.5q-41 0 -80.5 12t-72 38t-52 68.5t-19.5 98.5q0 53 25 98.5
t70 78.5q-35 32 -50.5 66t-15.5 77q0 37 12.5 72t40.5 60.5t66.5 40.5t82.5 15q34 0 69.5 -10.5t65.5 -33.5t48.5 -60t18.5 -86z" />
    <glyph glyph-name="quotesingle" unicode="'" horiz-adv-x="236" 
d="M168 547h-101v206h101v-206z" />
    <glyph glyph-name="parenleft" unicode="(" horiz-adv-x="299" 
d="M63 100v481q0 50 17.5 87.5t69.5 85.5l16 15l71 -78l-16 -15q-3 -3 -14 -15t-18 -21.5t-10.5 -21t-5 -22.5t-1.5 -20v-471q0 -29 5 -43.5t20 -30t43 -39.5l-73 -83l-18 17q-23 22 -44.5 47t-31.5 51t-10 76z" />
    <glyph glyph-name="parenright" unicode=")" horiz-adv-x="302" 
d="M240 100q0 -39 -5.5 -61.5t-24 -49t-56.5 -63.5l-18 -17l-73 83q38 33 51 48.5t15 30t2 34.5v471q0 24 -5 39t-12 24.5t-18 21.5t-14 15l-16 15l71 78l16 -15q52 -48 69.5 -85.5t17.5 -87.5v-481z" />
    <glyph glyph-name="asterisk" unicode="*" horiz-adv-x="574" 
d="M460 462l-52 -88l-75 45l4 -87h-101l2 86l-73 -44l-50 87l73 40l-73 41l50 88l73 -44l-2 86h101l-4 -88l75 46l50 -89l-72 -39z" />
    <glyph glyph-name="plus" unicode="+" horiz-adv-x="537" 
d="M480 227h-159v-164h-107v164h-157v106h157v153h107v-153h159v-106z" />
    <glyph glyph-name="comma" unicode="," horiz-adv-x="316" 
d="M244 138l-127 -249h-109l100 249h136z" />
    <glyph glyph-name="hyphen" unicode="-" horiz-adv-x="439" 
d="M377 227h-314v106h314v-106z" />
    <glyph glyph-name="period" unicode="." horiz-adv-x="258" 
d="M200 0h-141v141h141v-141z" />
    <glyph glyph-name="slash" unicode="/" horiz-adv-x="493" 
d="M431 737l-255 -785h-113l257 785h111z" />
    <glyph glyph-name="zero" unicode="0" horiz-adv-x="505" 
d="M453 192q0 -59 -27 -107t-72 -70.5t-104 -22.5q-43 0 -77 12.5t-59.5 36t-43.5 64t-18 88.5v325q0 28 9 61.5t31.5 65t63 52t98.5 20.5q44 0 83 -14t65 -43.5t38.5 -67t12.5 -75.5v-325zM323 193v324q0 31 -17 51t-53 20q-18 0 -35.5 -7t-26.5 -24t-9 -40v-324
q0 -22 9 -39.5t26.5 -25t35.5 -7.5t35 7.5t26 25t9 39.5z" />
    <glyph glyph-name="one" unicode="1" horiz-adv-x="511" 
d="M453 0h-391v129h129v452l-124 -9v125l254 22v-590h132v-129z" />
    <glyph glyph-name="two" unicode="2" horiz-adv-x="500" 
d="M461 0h-421v154q0 41 19 82t75 87q26 22 83.5 56.5t81.5 53.5q13 11 22.5 30.5t9.5 44.5q0 39 -21.5 59t-59.5 20q-35 0 -57 -24.5t-22 -70.5h-130q0 63 24.5 114t70.5 81t114 30q34 0 70 -9.5t71 -37t52.5 -71t17.5 -88.5q0 -108 -77 -171q-27 -22 -86.5 -59t-86.5 -59
q-41 -32 -41 -74v-19h291v-129z" />
    <glyph glyph-name="three" unicode="3" horiz-adv-x="503" 
d="M447 601l-117 -162q44 -14 75.5 -44t43 -65t11.5 -63v-72q0 -28 -10.5 -63t-34.5 -67t-65.5 -53t-98.5 -21q-43 0 -78 12t-62.5 36t-48 68t-20.5 101h130q0 -36 14.5 -56.5t32.5 -26t31 -5.5q19 0 39 8.5t30.5 26.5t10.5 40v67q0 30 -20 48.5t-61 18.5h-72v97l110 157
h-219v129h379v-111z" />
    <glyph glyph-name="four" unicode="4" horiz-adv-x="513" 
d="M464 0h-130v183h-285v107l156 422h135l-147 -400h141v222h130v-534z" />
    <glyph glyph-name="five" unicode="5" horiz-adv-x="500" 
d="M464 198q0 -44 -17 -82.5t-47 -66t-69.5 -43t-81.5 -15.5q-32 0 -68 10t-72 38.5t-54.5 73.5t-18.5 92h130q0 -40 22.5 -62.5t60.5 -22.5q26 0 47 11.5t29.5 30t8.5 35.5v62q0 23 -12 43t-32 28t-39 8h-189v99l20 275h350v-129h-229l-8 -117h60q41 0 79 -14.5t67.5 -41
t46 -65t16.5 -84.5v-63z" />
    <glyph glyph-name="six" unicode="6" horiz-adv-x="506" 
d="M464 518h-130q0 31 -20 51t-61 20q-20 0 -40 -8t-30.5 -25.5t-10.5 -39.5v-68q18 12 43.5 19t47.5 7q39 0 76 -13.5t64 -42.5t42 -67t15 -77v-85q0 -27 -10 -60.5t-34 -65t-66 -52t-101 -20.5q-27 0 -64.5 8.5t-72.5 38t-52.5 72t-17.5 78.5v330q0 27 10.5 61t35 65.5
t66.5 52t99 20.5q43 0 83.5 -14t71.5 -47t43.5 -72t12.5 -66zM330 192v82q0 22 -10.5 39t-30 24.5t-39.5 7.5q-19 0 -38 -7.5t-29.5 -24.5t-10.5 -39v-82q0 -22 10.5 -39t30 -25t37.5 -8q19 0 39 7.5t30.5 25t10.5 39.5z" />
    <glyph glyph-name="seven" unicode="7" horiz-adv-x="499" 
d="M468 613l-220 -613h-139l212 583h-289v129h436v-99z" />
    <glyph glyph-name="eight" unicode="8" horiz-adv-x="510" 
d="M477 212q0 -33 -10.5 -71t-35.5 -71.5t-69 -55.5t-106 -22q-46 0 -83 13t-69.5 41t-51 75.5t-18.5 90.5q0 26 9.5 58t27 57t35.5 39q-30 28 -47.5 67.5t-17.5 75.5q0 33 10.5 68.5t34.5 67.5t67 52t103 20q44 0 84.5 -14t69.5 -43.5t44.5 -69t15.5 -81.5q0 -35 -18 -75
t-50 -68q37 -29 56 -73t19 -81zM346 212q0 39 -26.5 63.5t-63.5 24.5q-38 0 -64.5 -24.5t-26.5 -63.5q0 -27 11.5 -48.5t35 -32t44.5 -10.5q20 0 41.5 9t35 29t13.5 53zM339 509q0 33 -17.5 51.5t-36 23t-29.5 4.5q-20 0 -41 -8.5t-32.5 -27.5t-11.5 -43q0 -36 24.5 -58.5
t60.5 -22.5t59.5 22.5t23.5 58.5z" />
    <glyph glyph-name="nine" unicode="9" horiz-adv-x="506" 
d="M42 190h130q0 -31 20 -51t61 -20q20 0 40 8t30.5 25.5t10.5 39.5v69q-19 -12 -44 -19t-47 -7q-39 0 -76 13.5t-64 42.5t-42 67t-15 77v84q0 27 10 60.5t34 65t66 52t101 20.5q27 0 64.5 -8.5t72.5 -38t52.5 -72t17.5 -78.5v-330q0 -27 -10.5 -61t-35 -65.5t-66.5 -52
t-99 -20.5q-43 0 -83.5 14t-71.5 47t-43.5 72t-12.5 66zM176 516v-81q0 -22 10.5 -39t30 -24.5t39.5 -7.5q19 0 38 7.5t29.5 24.5t10.5 39v81q0 22 -10.5 39t-30 25t-37.5 8q-19 0 -39 -7.5t-30.5 -25t-10.5 -39.5z" />
    <glyph glyph-name="colon" unicode=":" horiz-adv-x="258" 
d="M200 0h-141v141h141v-141zM200 291h-141v141h141v-141z" />
    <glyph glyph-name="semicolon" unicode=";" horiz-adv-x="281" 
d="M209 291h-141v141h141v-141zM210 138l-127 -249h-109l100 249h136z" />
    <glyph glyph-name="less" unicode="&#x3c;" horiz-adv-x="540" 
d="M481 0h-156l-262 262l259 262h153l-260 -260z" />
    <glyph glyph-name="equal" unicode="=" horiz-adv-x="571" 
d="M473 322h-374v105h374v-105zM473 151h-374v105h374v-105z" />
    <glyph glyph-name="greater" unicode="&#x3e;" horiz-adv-x="541" 
d="M479 262l-264 -262h-153l263 263l-259 261h152z" />
    <glyph glyph-name="question" unicode="?" horiz-adv-x="434" 
d="M427 511q0 -96 -102 -178q-3 -2 -16 -12t-23.5 -20.5t-15.5 -23.5t-5.5 -22t-0.5 -13v-26h-130v23q0 88 47 135q6 6 61 48.5t55 87.5q0 38 -20.5 58.5t-57.5 20.5q-20 0 -40.5 -10t-31 -32t-11.5 -49h-128q0 38 12 76.5t38 71t66.5 52t94.5 19.5q92 0 150 -57.5
t58 -148.5zM273 0h-145v146h145v-146z" />
    <glyph glyph-name="at" unicode="@" horiz-adv-x="1001" 
d="M709 0q-44 0 -81.5 21t-55.5 58q-24 -24 -62 -40.5t-83 -16.5q-76 0 -118 51.5t-27 131.5l26 138q16 79 71.5 125t132.5 46q15 0 38 -7t43 -24l5 23h113l-64 -326q-3 -18 6 -37.5t25.5 -28.5t32.5 -9q20 0 41 10t41.5 37.5t30 68t9.5 76.5q0 65 -24 122.5t-68 99
t-104 64.5t-127 23q-66 0 -128.5 -28t-110 -76.5t-74.5 -112.5t-27 -132q0 -70 24.5 -132t68.5 -106.5t103 -69t125 -24.5q29 0 75 9.5t76 20.5l37 -98q-40 -17 -94 -27.5t-93 -10.5q-43 0 -98.5 11t-112 41t-101 74t-74 100.5t-40.5 112.5t-11 99q0 67 24 142t85 148.5
t152.5 119t193.5 45.5q65 0 138.5 -20.5t139.5 -70.5t102 -112.5t47 -116t11 -95.5q0 -62 -19.5 -117t-54 -95.5t-77.5 -62.5t-88 -22zM539 206l27 138q6 30 -9.5 48.5t-47.5 18.5t-57.5 -23t-32.5 -56l-26 -138q-6 -30 8.5 -50t45.5 -20q34 0 59 21.5t33 60.5z" />
    <glyph glyph-name="A" unicode="A" horiz-adv-x="555" 
d="M374 163h-192l-42 -163h-130l189 712h158l189 -712h-130zM342 292l-64 257l-64 -257h128z" />
    <glyph glyph-name="B" unicode="B" horiz-adv-x="542" 
d="M497 202q0 -28 -9.5 -62t-32.5 -66t-64.5 -53t-100.5 -21h-227v712h222q60 0 105 -22.5t70.5 -69.5t25.5 -107v-12q0 -33 -19.5 -72t-52.5 -61q37 -24 60 -63.5t23 -79.5v-23zM356 503v9q0 32 -17 51.5t-55 19.5h-91v-153h97q66 0 66 73zM367 203v21q0 24 -8.5 42.5
t-26.5 27t-39 8.5h-100v-173h95q20 0 39.5 7.5t29.5 25t10 41.5z" />
    <glyph glyph-name="C" unicode="C" horiz-adv-x="515" 
d="M482 216q0 -35 -11 -74t-36 -73.5t-67.5 -56t-100.5 -21.5t-100.5 21.5t-67 54t-35.5 67.5t-11 64v317q0 28 12 67.5t43.5 72.5t73 47.5t86.5 14.5q57 0 99 -23t67 -58t36.5 -73t11.5 -68h-130q0 35 -13 55.5t-32 29.5t-39 9q-21 0 -42 -8t-32 -26t-11 -42v-315
q0 -33 17.5 -51.5t36.5 -23t31 -4.5q22 0 41 9.5t31 31t12 56.5h130z" />
    <glyph glyph-name="D" unicode="D" horiz-adv-x="542" 
d="M490 204q0 -29 -9 -63.5t-31 -66.5t-62.5 -53t-98.5 -21h-226v712h222q45 0 80.5 -12.5t62 -36.5t44.5 -65t18 -89v-305zM360 205v301q0 24 -9.5 42.5t-28.5 26.5t-39 8h-90v-454h92q20 0 38 8t27.5 26t9.5 42z" />
    <glyph glyph-name="E" unicode="E" horiz-adv-x="507" 
d="M475 0h-412v712h412v-129h-282v-144h261v-129h-261v-181h282v-129z" />
    <glyph glyph-name="F" unicode="F" horiz-adv-x="497" 
d="M475 583h-282v-145h261v-129h-261v-309h-130v712h412v-129z" />
    <glyph glyph-name="G" unicode="G" horiz-adv-x="534" 
d="M482 197q0 -28 -11 -63t-36 -68t-68 -54t-101 -21q-44 0 -84.5 14.5t-69 45t-44 70t-15.5 77.5v318q0 37 13 70t35 61t64.5 49t102.5 21q43 0 83.5 -15t69.5 -47t45 -74.5t16 -84.5h-130q0 34 -13 54t-32 29t-39 9q-21 0 -42 -7.5t-32 -25.5t-11 -41v-318
q0 -23 10.5 -41.5t32 -26.5t42.5 -8q20 0 39 7t32 23.5t13 45.5v95h-105v127h235v-221z" />
    <glyph glyph-name="H" unicode="H" horiz-adv-x="566" 
d="M504 0h-130v306h-181v-306h-130v711h130v-276h181v276h130v-711z" />
    <glyph glyph-name="I" unicode="I" horiz-adv-x="255" 
d="M63 712h130v-712h-130v712z" />
    <glyph glyph-name="J" unicode="J" horiz-adv-x="452" 
d="M395 712v-516q0 -97 -52 -151t-145 -54q-91 0 -143 61.5t-52 162.5h130q0 -43 14 -69t52 -26q35 0 50.5 20t15.5 49v394h-194v129h324z" />
    <glyph glyph-name="K" unicode="K" horiz-adv-x="546" 
d="M193 712v-283l186 283h150l-215 -314l219 -398h-149l-149 284l-42 -63v-221h-130v712h130z" />
    <glyph glyph-name="L" unicode="L" horiz-adv-x="471" 
d="M474 0h-411v712h130v-583h281v-129z" />
    <glyph glyph-name="M" unicode="M" horiz-adv-x="657" 
d="M191 0h-129v712h134l132 -321l130 321h137v-712h-129v443l-96 -242h-82l-97 243v-444z" />
    <glyph glyph-name="N" unicode="N" horiz-adv-x="557" 
d="M495 0h-131l-171 404v-404h-130v712h129l173 -412v412h130v-712z" />
    <glyph glyph-name="O" unicode="O" horiz-adv-x="534" 
d="M482 197q0 -29 -12.5 -69t-44 -74t-73 -48.5t-85.5 -14.5q-58 0 -100.5 21.5t-67 54t-35.5 67.5t-11 64v317q0 28 12 67.5t43.5 72.5t73 47.5t86.5 14.5q43 0 83.5 -14.5t69.5 -44.5t45 -69t16 -75v-317zM352 198v315q0 38 -24.5 57t-59.5 19q-21 0 -42 -8t-32 -26
t-11 -42v-315q0 -33 17.5 -51.5t36.5 -23t31 -4.5q29 0 50 13.5t27.5 31t6.5 34.5z" />
    <glyph glyph-name="P" unicode="P" horiz-adv-x="517" 
d="M490 462q0 -30 -9 -64.5t-31 -66.5t-62.5 -53t-98.5 -21h-96v-257h-130v712h222q45 0 80.5 -12.5t62 -36.5t44.5 -65t18 -89v-47zM361 463v44q0 24 -10 42t-29.5 26t-39.5 8h-89v-197h91q40 0 58.5 21.5t18.5 55.5z" />
    <glyph glyph-name="Q" unicode="Q" horiz-adv-x="534" 
d="M482 197q0 -26 -10 -62t-35.5 -68t-58 -49.5t-67.5 -22.5v-91h-87v91q-23 4 -53.5 16t-57 39.5t-43.5 66.5t-17 81v317q0 28 12 67.5t43.5 72.5t73 47.5t86.5 14.5q43 0 83.5 -14.5t69.5 -44.5t45 -69t16 -75v-317zM352 198v315q0 38 -24.5 57t-59.5 19q-21 0 -42 -8
t-32 -26t-11 -42v-315q0 -51 41 -70v119h87v-119q41 20 41 70z" />
    <glyph glyph-name="R" unicode="R" horiz-adv-x="540" 
d="M526 0h-144l-127 275h-62v-275h-130v712h223q45 0 80.5 -12.5t62.5 -36t45.5 -64.5t18.5 -89v-31q0 -34 -11.5 -70.5t-34.5 -66.5t-61 -48zM364 480v27q0 24 -10 42t-29 26t-39 8h-93v-179h95q20 0 38.5 7.5t28 26t9.5 42.5z" />
    <glyph glyph-name="S" unicode="S" horiz-adv-x="511" 
d="M479 197q0 -43 -15.5 -76.5t-40 -60t-70 -48t-103.5 -21.5q-37 0 -75.5 12t-70.5 40t-53.5 73.5t-21.5 105.5h130q0 -48 25.5 -76t66.5 -28q44 0 71 22t27 57q0 20 -9.5 37.5t-39.5 34.5q-29 17 -78 41t-66 33q-50 26 -80.5 71.5t-30.5 108.5q0 52 26 98.5t76.5 71
t106.5 24.5q47 0 87 -16.5t69 -46t44.5 -70t15.5 -87.5h-130q0 43 -24.5 68t-61.5 25q-33 0 -56 -19.5t-23 -48.5q0 -43 40 -63l148 -74q116 -63 116 -188z" />
    <glyph glyph-name="T" unicode="T" horiz-adv-x="465" 
d="M457 583h-159v-583h-130v583h-159v129h448v-129z" />
    <glyph glyph-name="U" unicode="U" horiz-adv-x="534" 
d="M482 197q0 -30 -12 -70.5t-43 -74t-72.5 -47.5t-86.5 -14t-81.5 12.5t-64.5 36t-48.5 66t-20.5 92.5v514h130v-514q0 -33 17.5 -51.5t36.5 -23t31 -4.5q29 0 50 13.5t27.5 31t6.5 34.5v514h130v-515z" />
    <glyph glyph-name="V" unicode="V" horiz-adv-x="533" 
d="M395 712h130l-176 -712h-161l-179 712h131l126 -521z" />
    <glyph glyph-name="W" unicode="W" horiz-adv-x="771" 
d="M763 712l-148 -712h-124l-104 433l-107 -433h-123l-148 712h134l88 -468l107 467h95l107 -467l88 468h135z" />
    <glyph glyph-name="X" unicode="X" horiz-adv-x="533" 
d="M525 0h-150l-108 219l-108 -219h-150l184 357l-183 355h148l108 -218l112 218h145l-184 -353z" />
    <glyph glyph-name="Y" unicode="Y" horiz-adv-x="521" 
d="M513 712l-187 -454v-258h-130v260l-187 452h142l110 -285l111 285h141z" />
    <glyph glyph-name="Z" unicode="Z" horiz-adv-x="449" 
d="M437 0h-424v102l253 481h-239v129h396v-100l-252 -483h266v-129z" />
    <glyph glyph-name="bracketleft" unicode="[" horiz-adv-x="309" 
d="M247 -74h-184v815h184v-104h-78v-607h78v-104z" />
    <glyph glyph-name="backslash" unicode="\" horiz-adv-x="492" 
d="M430 -50h-110l-257 785h112z" />
    <glyph glyph-name="bracketright" unicode="]" horiz-adv-x="309" 
d="M247 -74h-184v104h78v607h-78v104h184v-815z" />
    <glyph glyph-name="asciicircum" unicode="^" horiz-adv-x="515" 
d="M453 382h-120l-74 134l-73 -134h-123l153 283h88z" />
    <glyph glyph-name="underscore" unicode="_" horiz-adv-x="508" 
d="M518 -144h-527v101h527v-101z" />
    <glyph glyph-name="grave" unicode="`" horiz-adv-x="349" 
d="M177 590l-106 175h125l84 -175h-103z" />
    <glyph glyph-name="a" unicode="a" horiz-adv-x="504" 
d="M446 0h-125v37q-38 -46 -114 -46q-48 0 -87 23t-61 60.5t-22 87.5q0 28 10 56.5t34 50.5t63 36t92 14h84v31q0 33 -20.5 50t-50.5 17q-28 0 -49 -15.5t-24 -42.5h-128q6 54 33 92t70.5 59.5t96.5 21.5q58 0 102.5 -21t70 -60.5t25.5 -97.5v-353zM228 101q29 0 51.5 13
t31.5 33.5t9 40.5v29h-84q-32 0 -52.5 -15.5t-20.5 -39.5q0 -28 18.5 -44.5t46.5 -16.5z" />
    <glyph glyph-name="b" unicode="b" horiz-adv-x="519" 
d="M286 -9q-23 0 -48 8.5t-46 24.5v-24h-128v701h128v-201q20 15 46 23.5t48 8.5q80 0 130.5 -53.5t50.5 -142.5v-147q0 -89 -50.5 -143.5t-130.5 -54.5zM339 189v147q0 21 -8.5 39.5t-26.5 27t-38 8.5q-35 0 -54.5 -19.5t-19.5 -55.5v-147q0 -23 8 -41.5t25.5 -27.5
t40.5 -9q34 0 53.5 21.5t19.5 56.5z" />
    <glyph glyph-name="c" unicode="c" horiz-adv-x="497" 
d="M258 532q53 0 96 -21t73.5 -65t36.5 -111h-130q-2 29 -18 49t-33.5 24t-24.5 4q-36 0 -56.5 -20t-20.5 -56v-147q0 -37 20 -58t57 -21q33 0 52 21t23 56h131q-7 -88 -64 -142t-142 -54q-92 0 -148.5 53.5t-56.5 144.5v147q0 88 57 142t148 54z" />
    <glyph glyph-name="d" unicode="d" horiz-adv-x="519" 
d="M234 -9q-80 0 -130.5 54.5t-50.5 143.5v147q0 89 50.5 142.5t130.5 53.5q22 0 48 -8.5t46 -23.5v201h128v-701h-128v24q-16 -12 -40.5 -22.5t-53.5 -10.5zM181 336v-147q0 -35 19.5 -56.5t53.5 -21.5q23 0 40.5 9t25.5 27.5t8 41.5v147q0 36 -19.5 55.5t-54.5 19.5
q-20 0 -38 -8.5t-26.5 -27t-8.5 -39.5z" />
    <glyph glyph-name="e" unicode="e" 
d="M464 215h-283v-27q0 -22 9 -42t27 -29.5t41 -9.5q33 0 52.5 17.5t23.5 49.5h130q-11 -85 -66.5 -134t-139.5 -49q-92 0 -148.5 53.5t-56.5 144.5v147q0 88 57 142t148 54q45 0 83.5 -13.5t65.5 -39.5t42 -62.5t15 -80.5v-121zM181 338v-21h155v21q0 21 -9.5 40.5
t-27.5 29t-41 9.5q-36 0 -56.5 -21.5t-20.5 -57.5z" />
    <glyph glyph-name="f" unicode="f" horiz-adv-x="314" 
d="M307 410h-91v-410h-128v410h-80v115h80v15q0 75 39.5 118t116.5 43h63v-118h-66q-8 0 -16.5 -7t-8.5 -23v-28h91v-115z" />
    <glyph glyph-name="g" unicode="g" horiz-adv-x="519" 
d="M234 -9q-80 0 -130.5 54.5t-50.5 143.5v147q0 89 50.5 142.5t130.5 53.5q22 0 48 -8.5t46 -23.5v25h128v-545q0 -91 -51 -141t-152 -50q-32 0 -65 9t-60 29t-45 49.5t-24 67.5h132q5 -25 21 -35.5t45 -10.5q34 0 52.5 18.5t18.5 63.5v44q-16 -12 -40.5 -22.5t-53.5 -10.5
zM181 336v-147q0 -35 19.5 -56.5t53.5 -21.5q19 0 37 7.5t27 24.5t10 38v155q0 36 -19.5 55.5t-54.5 19.5q-20 0 -38 -8.5t-26.5 -27t-8.5 -39.5z" />
    <glyph glyph-name="h" unicode="h" horiz-adv-x="525" 
d="M191 701v-204q19 16 46.5 25.5t56.5 9.5q27 0 57 -9t58.5 -34.5t43 -67t14.5 -85.5v-336h-128v336q0 40 -20.5 57.5t-49.5 17.5q-32 0 -54 -23t-24 -59v-329h-128v701h128z" />
    <glyph glyph-name="i" unicode="i" horiz-adv-x="253" 
d="M191 0h-128v525h128v-525zM194 569h-134v142h134v-142z" />
    <glyph glyph-name="j" unicode="j" horiz-adv-x="247" 
d="M188 525v-587q0 -38 -11 -67t-31 -47.5t-47 -26.5t-54 -8h-56v121h46q25 0 25 24v591h128zM191 569h-134v142h134v-142z" />
    <glyph glyph-name="k" unicode="k" horiz-adv-x="525" 
d="M518 525l-199 -217l200 -308h-154l-132 214l-42 -46v-168h-128v701h128v-361l164 185h163z" />
    <glyph glyph-name="l" unicode="l" horiz-adv-x="269" 
d="M59 149v552h128v-555q0 -11 5.5 -18t15.5 -7h51v-121h-57q-77 0 -110 34.5t-33 114.5z" />
    <glyph glyph-name="m" unicode="m" horiz-adv-x="719" 
d="M426 0h-128v360q0 24 -12.5 39t-31.5 15q-61 0 -63 -91v-323h-128v525h128v-28q16 15 40.5 24.5t50.5 9.5q58 0 98 -50q23 24 56 37t70 13q45 0 79 -20t55 -56.5t21 -85.5v-369h-128v363q0 24 -12 37.5t-33 13.5q-60 0 -62 -90v-324z" />
    <glyph glyph-name="n" unicode="n" horiz-adv-x="525" 
d="M191 525v-29q19 16 46.5 25.5t56.5 9.5q27 0 57 -9t58.5 -34.5t43 -67t14.5 -85.5v-335h-128v335q0 40 -20.5 57.5t-49.5 17.5q-32 0 -54 -23t-24 -59v-328h-128v525h128z" />
    <glyph glyph-name="o" unicode="o" 
d="M464 336v-147q0 -89 -57.5 -143.5t-148.5 -54.5q-92 0 -148.5 53.5t-56.5 144.5v147q0 88 57 142t148 54q45 0 83.5 -13.5t65.5 -39.5t42 -62.5t15 -80.5zM336 189v147q0 21 -9.5 39.5t-28.5 27t-40 8.5q-36 0 -56.5 -20t-20.5 -55v-147q0 -22 9 -41.5t28 -28t40 -8.5
q35 0 56.5 21.5t21.5 56.5z" />
    <glyph glyph-name="p" unicode="p" horiz-adv-x="518" 
d="M285 -9q-23 0 -48 8.5t-46 24.5v-235h-128v736h128v-25q20 15 46 23.5t48 8.5q80 0 130.5 -53.5t50.5 -142.5v-147q0 -89 -50.5 -143.5t-130.5 -54.5zM338 189v147q0 21 -8.5 39.5t-26.5 27t-38 8.5q-34 0 -53.5 -18t-20.5 -50v-154q0 -23 8 -41.5t25.5 -27.5t40.5 -9
q34 0 53.5 21.5t19.5 56.5z" />
    <glyph glyph-name="q" unicode="q" horiz-adv-x="518" 
d="M234 -9q-80 0 -130.5 54.5t-50.5 143.5v147q0 89 50.5 142.5t130.5 53.5q22 0 48 -8.5t46 -23.5v25h128v-736h-128v235q-16 -12 -40.5 -22.5t-53.5 -10.5zM181 336v-147q0 -35 19.5 -56.5t53.5 -21.5q19 0 37 7.5t27 24.5t10 38v155q0 36 -19.5 55.5t-54.5 19.5
q-20 0 -38 -8.5t-26.5 -27t-8.5 -39.5z" />
    <glyph glyph-name="r" unicode="r" horiz-adv-x="331" 
d="M192 525v-31q33 38 87 38h41v-128h-59q-66 0 -69 -94v-310h-128v525h128z" />
    <glyph glyph-name="s" unicode="s" horiz-adv-x="474" 
d="M442 167q0 -54 -25 -92.5t-71.5 -61t-110.5 -22.5q-31 0 -65 8.5t-64 30t-51.5 58.5t-24.5 90h128q2 -33 21.5 -53.5t56.5 -20.5q38 0 59 12.5t21 35.5q0 29 -40 42l-103 30q-40 12 -71.5 35.5t-45 53t-13.5 58.5t10.5 58t34.5 52t61.5 37t86.5 14q84 0 137.5 -43.5
t61.5 -126.5h-129q-3 57 -71 57q-26 0 -46 -11t-20 -31q0 -25 37 -35l115 -33q37 -12 66.5 -34.5t42 -51t12.5 -56.5z" />
    <glyph glyph-name="t" unicode="t" horiz-adv-x="350" 
d="M6 410v115h89v176h128v-176h97v-115h-97v-266q0 -9 6 -16t16 -7h71v-121h-78q-28 0 -55 8.5t-47 26.5t-30.5 47t-10.5 67v261h-89z" />
    <glyph glyph-name="u" unicode="u" horiz-adv-x="525" 
d="M335 0v28q-19 -16 -46.5 -25.5t-56.5 -9.5q-27 0 -57 9t-58.5 34.5t-43 67t-14.5 85.5v336h128v-336q0 -22 7.5 -40t25 -26.5t37.5 -8.5q32 0 55 23t23 59v329h128v-525h-128z" />
    <glyph glyph-name="v" unicode="v" horiz-adv-x="474" 
d="M317 0h-158l-148 525h135l91 -374l94 374h133z" />
    <glyph glyph-name="w" unicode="w" horiz-adv-x="690" 
d="M545 0h-122l-78 317l-77 -317h-120l-124 525h130l63 -325l72 325h113l71 -325l64 325h130z" />
    <glyph glyph-name="x" unicode="x" horiz-adv-x="492" 
d="M4 525h147l94 -155l94 155h147l-171 -262l175 -263h-151l-94 153l-95 -153h-147l169 261z" />
    <glyph glyph-name="y" unicode="y" horiz-adv-x="470" 
d="M132 -90q14 0 27.5 6t17.5 21l16 63h-35l-147 525h134l90 -369l92 369h133l-169 -603q-19 -70 -55.5 -101.5t-115.5 -31.5h-62v121h74z" />
    <glyph glyph-name="z" unicode="z" horiz-adv-x="436" 
d="M413 0h-389v97l210 310h-202v118h362v-97l-210 -310h229v-118z" />
    <glyph glyph-name="braceleft" unicode="{" horiz-adv-x="308" 
d="M246 -63h-52q-131 0 -131 131v544q0 65 32 97.5t99 32.5h52v-105h-48q-29 0 -29 -35v-528q0 -17 6.5 -24.5t22.5 -7.5h48v-105z" />
    <glyph glyph-name="bar" unicode="|" horiz-adv-x="231" 
d="M169 -50h-106v787h106v-787z" />
    <glyph glyph-name="braceright" unicode="}" horiz-adv-x="308" 
d="M115 -63h-52v105h48q12 0 20.5 5.5t8.5 26.5v528q0 35 -29 35h-48v105h52q67 0 99 -32.5t32 -97.5v-544q0 -131 -131 -131z" />
    <glyph glyph-name="asciitilde" unicode="~" horiz-adv-x="541" 
d="M398 343l81 -62q-40 -38 -72 -60.5t-70 -22.5q-25 0 -69.5 20.5t-67.5 20.5q-10 0 -22 -8t-38 -35l-77 63q37 37 68.5 60t70.5 23q25 0 69 -21t68 -21q8 0 20 8.5t39 34.5z" />
    <glyph glyph-name="exclamdown" unicode="&#xa1;" horiz-adv-x="270" 
d="M73 322h125v-497h-125v497zM208 392h-145v146h145v-146z" />
    <glyph glyph-name="cent" unicode="&#xa2;" horiz-adv-x="497" 
d="M311 655v-129q30 -7 63.5 -28t59 -63t30.5 -100h-130q-2 29 -18 49t-33.5 24t-24.5 4q-36 0 -56.5 -20t-20.5 -56v-147q0 -37 20 -58t57 -21q33 0 52 21t23 56h131q-4 -54 -29 -97t-59.5 -64.5t-64.5 -28.5v-130h-105v129q-71 14 -112 65t-41 128v147q0 75 41.5 126
t111.5 65v128h105z" />
    <glyph glyph-name="sterling" unicode="&#xa3;" horiz-adv-x="499" 
d="M466 499h-130q0 26 -8.5 47.5t-26.5 31.5t-37 10q-18 0 -35 -8t-24.5 -24.5t-7.5 -35.5v-87h189v-129h-189v-175h268v-129h-398v304h-33v129h33v86q0 87 54.5 142.5t142.5 55.5q43 0 80.5 -16t65 -45t42 -69.5t14.5 -87.5z" />
    <glyph glyph-name="yen" unicode="&#xa5;" horiz-adv-x="545" 
d="M464 95h-126v-95h-128v95h-128v103h128v52h-128v103h88l-146 359h138l110 -275l112 275h138l-147 -359h89v-103h-126v-52h126v-103z" />
    <glyph glyph-name="brokenbar" unicode="&#xa6;" horiz-adv-x="227" 
d="M169 378h-110v333h110v-333zM169 -25h-110v334h110v-334z" />
    <glyph glyph-name="section" unicode="&#xa7;" horiz-adv-x="531" 
d="M70 370q0 57 23 89q-6 14 -11.5 34.5t-5.5 35.5q0 51 23 86.5t65 55t101 19.5q89 0 143 -49t54 -135h-109q0 35 -23.5 55t-66.5 20q-23 0 -43 -6.5t-28.5 -19t-8.5 -26.5q0 -10 9.5 -19.5t21.5 -13.5q25 -7 135 -29q38 -8 67.5 -32.5t41 -55t11.5 -56.5q0 -51 -22 -88
q15 -24 15 -72q0 -33 -10.5 -65t-35.5 -55.5t-63.5 -37t-90.5 -13.5q-88 0 -143.5 49.5t-55.5 135.5h111q0 -35 24 -55.5t64 -20.5q28 0 51 7t32.5 22.5t9.5 32.5q0 16 -12 25.5t-26 13.5l-135 30q-49 12 -80.5 48.5t-31.5 89.5zM209 337l151 -33q6 19 -4 36t-30 21l-145 31
q-3 -8 -3 -19.5t8.5 -22t22.5 -13.5z" />
    <glyph glyph-name="dieresis" unicode="&#xa8;" horiz-adv-x="439" 
d="M385 601h-120v133h120v-133zM175 601h-120v133h120v-133z" />
    <glyph glyph-name="copyright" unicode="&#xa9;" horiz-adv-x="822" 
d="M527 255q0 -16 -6.5 -40.5t-24 -44.5t-42 -28.5t-51.5 -8.5q-43 0 -69 18.5t-38 47t-12 56.5v177q0 27 12.5 55.5t39 46.5t69.5 18q44 0 70.5 -18.5t39 -47t12.5 -55.5h-86q0 16 -8.5 26t-27.5 10q-13 0 -24 -8t-11 -28v-176q0 -20 11 -28.5t24 -8.5t24.5 8t11.5 29h86z
M64 344q0 71 26.5 136t74.5 114t112 76.5t135 27.5t135 -27.5t112 -76.5t74.5 -114t26.5 -136t-26.5 -136t-74.5 -114t-112 -76.5t-135 -27.5t-135 27.5t-112 76.5t-74.5 114t-26.5 136zM157 344q0 -53 19 -102t53 -85.5t81 -57t100 -20.5t100.5 20.5t82.5 57t54.5 85.5
t19.5 102t-19.5 102t-54.5 85.5t-82.5 57t-100.5 20.5t-100 -20.5t-81 -57t-53 -85.5t-19 -102z" />
    <glyph glyph-name="ordfeminine" unicode="&#xaa;" horiz-adv-x="383" 
d="M146 579h-85q6 37 26 61.5t49 38.5t58 14q39 0 70 -14.5t48 -41t17 -66.5v-239h-79v24q-11 -15 -33.5 -22.5t-39.5 -7.5q-35 0 -64.5 15.5t-45.5 41.5t-16 64q0 49 35 76t90 27h72v20q0 43 -53 43q-14 0 -29 -8t-20 -26zM248 459v18h-72q-19 0 -31 -8t-12 -22
q0 -44 52 -44q24 0 43.5 16t19.5 40z" />
    <glyph glyph-name="guillemotleft" unicode="&#xab;" horiz-adv-x="494" 
d="M442 32l-231 230l231 233v-148l-84 -85l84 -83v-147zM245 31l-232 231l232 233v-147l-84 -86l84 -84v-147z" />
    <glyph glyph-name="logicalnot" unicode="&#xac;" horiz-adv-x="536" 
d="M478 155h-110v151h-309v107h419v-258z" />
    <glyph glyph-name="uni00AD" unicode="&#xad;" horiz-adv-x="570" 
d="M500 227h-429v106h429v-106z" />
    <glyph glyph-name="registered" unicode="&#xae;" horiz-adv-x="822" 
d="M547 402q0 -21 -8 -45.5t-25.5 -41.5t-37.5 -25l78 -155h-96l-74 147h-3v-147h-85v408h130q35 0 64.5 -15t43 -46t13.5 -58v-22zM462 402v20q0 15 -9 25.5t-27 10.5h-45v-92h46q13 0 24 8t11 28zM64 344q0 71 26.5 136t74.5 114t112 76.5t135 27.5t135 -27.5t112 -76.5
t74.5 -114t26.5 -136t-26.5 -136t-74.5 -114t-112 -76.5t-135 -27.5t-135 27.5t-112 76.5t-74.5 114t-26.5 136zM157 344q0 -53 19 -102t53 -85.5t81 -57t100 -20.5t100.5 20.5t82.5 57t54.5 85.5t19.5 102t-19.5 102t-54.5 85.5t-82.5 57t-100.5 20.5t-100 -20.5t-81 -57
t-53 -85.5t-19 -102z" />
    <glyph glyph-name="macron" unicode="&#xaf;" horiz-adv-x="446" 
d="M384 604h-321v94h321v-94z" />
    <glyph glyph-name="degree" unicode="&#xb0;" horiz-adv-x="316" 
d="M288 576q0 -53 -38 -91.5t-92 -38.5q-38 0 -70.5 22.5t-45.5 53t-13 54.5q0 25 13 55.5t45.5 52.5t70.5 22q33 0 64.5 -17t48.5 -48.5t17 -64.5zM202 576q0 18 -13 31t-31 13t-30.5 -13t-12.5 -31t12.5 -31t30.5 -13t31 13t13 31z" />
    <glyph glyph-name="plusminus" unicode="&#xb1;" horiz-adv-x="539" 
d="M481 228h-158v-90h-106v90h-158v105h158v143h106v-143h158v-105zM481 0h-422v105h422v-105z" />
    <glyph glyph-name="uni00B2" unicode="&#xb2;" horiz-adv-x="350" 
d="M293 594q0 -23 -8.5 -45t-27.5 -38.5t-53 -37.5q-1 -1 -3 -2t-16.5 -9.5t-23 -15.5t-13.5 -14.5t-5 -16.5v-1h149v-83h-232v87q0 51 53 93q6 5 40.5 25t46.5 33.5t12 23.5q0 15 -9 24t-25 9q-35 0 -35 -48h-83q0 31 11.5 61t40.5 50t66 20q24 0 51 -10.5t45.5 -39
t18.5 -65.5z" />
    <glyph glyph-name="uni00B3" unicode="&#xb3;" horiz-adv-x="348" 
d="M282 637l-51 -75q31 -15 44.5 -42.5t13.5 -57.5v-23q0 -25 -13 -52t-38 -44t-64 -17q-46 0 -73 23.5t-35.5 52.5t-8.5 50h83q0 -42 33 -42q11 0 22 6t11 23v23q0 12 -8.5 20t-24.5 8h-44v58l47 73h-104v83h210v-67z" />
    <glyph glyph-name="acute" unicode="&#xb4;" horiz-adv-x="348" 
d="M278 765l-106 -175h-103l84 175h125z" />
    <glyph glyph-name="uni00B5" unicode="&#xb5;" horiz-adv-x="526" 
d="M59 -213v738h125v-337q0 -22 8 -40.5t25.5 -27.5t39.5 -9q34 0 57.5 24.5t23.5 62.5v327h125v-525h-125v23q-15 -14 -38 -22t-48 -8q-36 0 -68 21v-227h-125z" />
    <glyph glyph-name="paragraph" unicode="&#xb6;" horiz-adv-x="548" 
d="M458 0h-109v583h-89v-583h-110v352q-45 5 -83 27.5t-57 60t-19 76.5q0 88 49.5 131.5t139.5 43.5h278v-691z" />
    <glyph glyph-name="periodcentered" unicode="&#xb7;" horiz-adv-x="263" 
d="M201 195h-138v140h138v-140z" />
    <glyph glyph-name="cedilla" unicode="&#xb8;" horiz-adv-x="322" 
d="M269 -43l-91 -178h-124l107 178h108z" />
    <glyph glyph-name="uni00B9" unicode="&#xb9;" horiz-adv-x="333" 
d="M279 331h-216v82h66v207l-49 -6v82l131 13v-296h68v-82z" />
    <glyph glyph-name="ordmasculine" unicode="&#xba;" horiz-adv-x="394" 
d="M336 458q0 -61 -38.5 -98t-100.5 -37q-63 0 -100.5 36.5t-37.5 98.5v101q0 37 15.5 66.5t47.5 48t75 18.5q62 0 100.5 -36t38.5 -97v-101zM253 457v102q0 15 -6.5 27.5t-20 18.5t-28.5 6q-26 0 -41 -14t-15 -38v-102q0 -21 13 -37t43 -16q25 0 40 14t15 39z" />
    <glyph glyph-name="guillemotright" unicode="&#xbb;" horiz-adv-x="494" 
d="M482 263l-231 -230v146l85 84l-85 85v148zM284 263l-231 -230v146l85 84l-85 85v148z" />
    <glyph glyph-name="onequarter" unicode="&#xbc;" horiz-adv-x="723" 
d="M275 331h-216v82h66v207l-49 -6v82l132 13v-296h67v-82zM543 749l-261 -799h-89l261 799h89zM665 0h-82v91h-143v61l83 222h83l-73 -200h50v91h82v-265z" />
    <glyph glyph-name="onehalf" unicode="&#xbd;" horiz-adv-x="754" 
d="M276 331h-217v82h66v207l-48 -5v81l130 13v-296h69v-82zM696 262q0 -51 -41 -87q-8 -8 -48.5 -31.5t-50.5 -37t-10 -23.5h149v-83h-233v86q0 53 52 94q7 5 40 24t46 32t13 26q0 32 -34 32q-33 0 -33 -47h-84q0 44 19 75.5t46.5 43t51.5 11.5t51.5 -10.5t46.5 -39
t19 -65.5zM542 749l-260 -799h-90l261 799h89z" />
    <glyph glyph-name="threequarters" unicode="&#xbe;" horiz-adv-x="733" 
d="M675 0h-83v91h-143v61l83 222h84l-74 -200h50v91h83v-265zM284 637l-51 -75q31 -15 44.5 -42.5t13.5 -57.5v-23q0 -25 -13 -52t-38 -44t-64 -17q-46 0 -73 23.5t-35.5 52.5t-8.5 50h83q0 -42 33 -42q11 0 22 6t11 23v23q0 12 -8.5 20t-24.5 8h-44v58l47 73h-104v83h210
v-67zM551 749l-259 -799h-90l263 799h86z" />
    <glyph glyph-name="questiondown" unicode="&#xbf;" horiz-adv-x="434" 
d="M307 368h-145v146h145v-146zM8 3q0 96 102 178q3 2 16 12t23.5 20.5t15.5 23.5t5.5 22t0.5 13v26h130v-23q0 -88 -47 -135q-6 -6 -61 -48.5t-55 -87.5q0 -38 20.5 -58.5t57.5 -20.5q20 0 40.5 10t31 32t11.5 49h128q0 -38 -12 -76.5t-38 -71t-66.5 -52t-94.5 -19.5
q-92 0 -150 57.5t-58 148.5z" />
    <glyph glyph-name="Agrave" unicode="&#xc0;" horiz-adv-x="555" 
d="M374 163h-192l-42 -163h-130l189 712h158l189 -712h-130zM342 292l-64 257l-64 -257h128zM239 787l-106 175h125l84 -175h-103z" />
    <glyph glyph-name="Aacute" unicode="&#xc1;" horiz-adv-x="555" 
d="M374 163h-192l-42 -163h-130l189 712h158l189 -712h-130zM342 292l-64 257l-64 -257h128zM424 962l-106 -175h-103l84 175h125z" />
    <glyph glyph-name="Acircumflex" unicode="&#xc2;" horiz-adv-x="555" 
d="M374 163h-192l-42 -163h-130l189 712h158l189 -712h-130zM342 292l-64 257l-64 -257h128zM439 780h-107l-55 71l-56 -71h-105l118 171h84z" />
    <glyph glyph-name="Atilde" unicode="&#xc3;" horiz-adv-x="555" 
d="M374 163h-192l-42 -163h-130l189 712h158l189 -712h-130zM342 292l-64 257l-64 -257h128zM385 916l67 -65q-30 -30 -58.5 -48.5t-60.5 -18.5q-21 0 -58.5 18.5t-50.5 18.5q-7 0 -16 -4t-35 -30l-68 64q66 68 118 68q21 0 58.5 -18.5t50.5 -18.5q21 0 53 34z" />
    <glyph glyph-name="Adieresis" unicode="&#xc4;" horiz-adv-x="555" 
d="M374 163h-192l-42 -163h-130l189 712h158l189 -712h-130zM342 292l-64 257l-64 -257h128zM443 784h-120v133h120v-133zM233 784h-120v133h120v-133z" />
    <glyph glyph-name="Aring" unicode="&#xc5;" horiz-adv-x="555" 
d="M374 163h-192l-42 -163h-130l189 712h158l189 -712h-130zM342 292l-64 257l-64 -257h128zM397 855q0 -34 -20 -64t-48 -42t-51 -12q-22 0 -49.5 12t-48 42t-20.5 64q0 35 20.5 65t48 41.5t49.5 11.5q23 0 51 -11.5t48 -41t20 -65.5zM238 855q0 -17 12 -29t29 -12t29 12
t12 29t-12 29t-29 12t-29 -12t-12 -29z" />
    <glyph glyph-name="AE" unicode="&#xc6;" horiz-adv-x="765" 
d="M733 0h-413v162h-135l-43 -162h-132l186 712h537v-129h-283v-144h260v-129h-260v-181h283v-129zM295 583l-78 -292h103v292h-25z" />
    <glyph glyph-name="Ccedilla" unicode="&#xc7;" horiz-adv-x="515" 
d="M482 216q0 -35 -11 -74t-36 -73.5t-67.5 -56t-100.5 -21.5t-100.5 21.5t-67 54t-35.5 67.5t-11 64v317q0 28 12 67.5t43.5 72.5t73 47.5t86.5 14.5q57 0 99 -23t67 -58t36.5 -73t11.5 -68h-130q0 35 -13 55.5t-32 29.5t-39 9q-21 0 -42 -8t-32 -26t-11 -42v-315
q0 -33 17.5 -51.5t36.5 -23t31 -4.5q22 0 41 9.5t31 31t12 56.5h130zM321 -43l-91 -178h-124l107 178h108z" />
    <glyph glyph-name="Egrave" unicode="&#xc8;" horiz-adv-x="507" 
d="M475 0h-412v712h412v-129h-282v-144h261v-129h-261v-181h282v-129zM245 787l-106 175h125l84 -175h-103z" />
    <glyph glyph-name="Eacute" unicode="&#xc9;" horiz-adv-x="507" 
d="M475 0h-412v712h412v-129h-282v-144h261v-129h-261v-181h282v-129zM402 962l-106 -175h-103l84 175h125z" />
    <glyph glyph-name="Ecircumflex" unicode="&#xca;" horiz-adv-x="507" 
d="M475 0h-412v712h412v-129h-282v-144h261v-129h-261v-181h282v-129zM431 780h-107l-55 71l-56 -71h-105l118 171h84z" />
    <glyph glyph-name="Edieresis" unicode="&#xcb;" horiz-adv-x="507" 
d="M475 0h-412v712h412v-129h-282v-144h261v-129h-261v-181h282v-129zM432 784h-120v133h120v-133zM222 784h-120v133h120v-133z" />
    <glyph glyph-name="Igrave" unicode="&#xcc;" horiz-adv-x="255" 
d="M63 712h130v-712h-130v712zM72 787l-106 175h125l84 -175h-103z" />
    <glyph glyph-name="Iacute" unicode="&#xcd;" horiz-adv-x="256" 
d="M63 712h130v-712h-130v712zM289 962l-106 -175h-103l84 175h125z" />
    <glyph glyph-name="Icircumflex" unicode="&#xce;" horiz-adv-x="256" 
d="M64 712h130v-712h-130v712zM290 780h-107l-55 71l-56 -71h-105l118 171h84z" />
    <glyph glyph-name="Idieresis" unicode="&#xcf;" horiz-adv-x="255" 
d="M63 712h130v-712h-130v712zM291 784h-120v133h120v-133zM81 784h-120v133h120v-133z" />
    <glyph glyph-name="Eth" unicode="&#xd0;" horiz-adv-x="597" 
d="M539 204q0 -60 -27 -109t-71.5 -72t-103.5 -23h-227v300h-51v123h51v289h224q45 0 80 -12.5t61.5 -36.5t45 -65t18.5 -89v-305zM409 205v301q0 24 -9.5 42.5t-28 26.5t-37.5 8h-94v-160h102v-123h-102v-171h95q19 0 37 8t27.5 26t9.5 42z" />
    <glyph glyph-name="Ntilde" unicode="&#xd1;" horiz-adv-x="557" 
d="M495 0h-131l-171 404v-404h-130v712h129l173 -412v412h130v-712zM391 916l67 -65q-30 -30 -58.5 -48.5t-60.5 -18.5q-21 0 -58.5 18.5t-50.5 18.5q-7 0 -16 -4t-35 -30l-68 64q66 68 118 68q21 0 58.5 -18.5t50.5 -18.5q21 0 53 34z" />
    <glyph glyph-name="Ograve" unicode="&#xd2;" horiz-adv-x="534" 
d="M482 197q0 -29 -12.5 -69t-44 -74t-73 -48.5t-85.5 -14.5q-58 0 -100.5 21.5t-67 54t-35.5 67.5t-11 64v317q0 28 12 67.5t43.5 72.5t73 47.5t86.5 14.5q43 0 83.5 -14.5t69.5 -44.5t45 -69t16 -75v-317zM352 198v315q0 38 -24.5 57t-59.5 19q-21 0 -42 -8t-32 -26
t-11 -42v-315q0 -33 17.5 -51.5t36.5 -23t31 -4.5q29 0 50 13.5t27.5 31t6.5 34.5zM232 787l-106 175h125l84 -175h-103z" />
    <glyph glyph-name="Oacute" unicode="&#xd3;" horiz-adv-x="534" 
d="M482 197q0 -29 -12.5 -69t-44 -74t-73 -48.5t-85.5 -14.5q-58 0 -100.5 21.5t-67 54t-35.5 67.5t-11 64v317q0 28 12 67.5t43.5 72.5t73 47.5t86.5 14.5q43 0 83.5 -14.5t69.5 -44.5t45 -69t16 -75v-317zM352 198v315q0 38 -24.5 57t-59.5 19q-21 0 -42 -8t-32 -26
t-11 -42v-315q0 -33 17.5 -51.5t36.5 -23t31 -4.5q29 0 50 13.5t27.5 31t6.5 34.5zM407 962l-106 -175h-103l84 175h125z" />
    <glyph glyph-name="Ocircumflex" unicode="&#xd4;" horiz-adv-x="534" 
d="M482 197q0 -29 -12.5 -69t-44 -74t-73 -48.5t-85.5 -14.5q-58 0 -100.5 21.5t-67 54t-35.5 67.5t-11 64v317q0 28 12 67.5t43.5 72.5t73 47.5t86.5 14.5q43 0 83.5 -14.5t69.5 -44.5t45 -69t16 -75v-317zM352 198v315q0 38 -24.5 57t-59.5 19q-21 0 -42 -8t-32 -26
t-11 -42v-315q0 -33 17.5 -51.5t36.5 -23t31 -4.5q29 0 50 13.5t27.5 31t6.5 34.5zM429 780h-107l-55 71l-56 -71h-105l118 171h84z" />
    <glyph glyph-name="Otilde" unicode="&#xd5;" horiz-adv-x="534" 
d="M482 197q0 -29 -12.5 -69t-44 -74t-73 -48.5t-85.5 -14.5q-58 0 -100.5 21.5t-67 54t-35.5 67.5t-11 64v317q0 28 12 67.5t43.5 72.5t73 47.5t86.5 14.5q43 0 83.5 -14.5t69.5 -44.5t45 -69t16 -75v-317zM352 198v315q0 38 -24.5 57t-59.5 19q-21 0 -42 -8t-32 -26
t-11 -42v-315q0 -33 17.5 -51.5t36.5 -23t31 -4.5q29 0 50 13.5t27.5 31t6.5 34.5zM374 916l67 -65q-30 -30 -58.5 -48.5t-60.5 -18.5q-21 0 -58.5 18.5t-50.5 18.5q-7 0 -16 -4t-35 -30l-68 64q66 68 118 68q21 0 58.5 -18.5t50.5 -18.5q21 0 53 34z" />
    <glyph glyph-name="Odieresis" unicode="&#xd6;" horiz-adv-x="534" 
d="M482 197q0 -29 -12.5 -69t-44 -74t-73 -48.5t-85.5 -14.5q-58 0 -100.5 21.5t-67 54t-35.5 67.5t-11 64v317q0 28 12 67.5t43.5 72.5t73 47.5t86.5 14.5q43 0 83.5 -14.5t69.5 -44.5t45 -69t16 -75v-317zM352 198v315q0 38 -24.5 57t-59.5 19q-21 0 -42 -8t-32 -26
t-11 -42v-315q0 -33 17.5 -51.5t36.5 -23t31 -4.5q29 0 50 13.5t27.5 31t6.5 34.5zM432 784h-120v133h120v-133zM222 784h-120v133h120v-133z" />
    <glyph glyph-name="multiply" unicode="&#xd7;" horiz-adv-x="567" 
d="M476 147l-74 -71l-119 118l-118 -118l-73 72l119 119l-119 120l73 73l118 -120l119 120l73 -73l-119 -120z" />
    <glyph glyph-name="Oslash" unicode="&#xd8;" horiz-adv-x="534" 
d="M440 758l-30 -89q18 -15 35.5 -40.5t27 -57t9.5 -56.5v-318q0 -29 -12.5 -69t-44 -74t-73 -48.5t-85.5 -14.5q-40 0 -78 12l-17 -51h-73l28 85q-19 15 -37 41.5t-27.5 59.5t-9.5 60v318q0 37 13 70t35 61t64.5 49t102.5 21q45 0 82 -14l19 55h71zM183 513v-314l127 381
q-20 8 -41 8q-41 0 -63.5 -20.5t-22.5 -54.5zM352 197v293l-121 -364q17 -6 38 -6q19 0 40 8t32 26.5t11 42.5z" />
    <glyph glyph-name="Ugrave" unicode="&#xd9;" horiz-adv-x="534" 
d="M482 197q0 -30 -12 -70.5t-43 -74t-72.5 -47.5t-86.5 -14t-81.5 12.5t-64.5 36t-48.5 66t-20.5 92.5v514h130v-514q0 -33 17.5 -51.5t36.5 -23t31 -4.5q29 0 50 13.5t27.5 31t6.5 34.5v514h130v-515zM239 787l-106 175h125l84 -175h-103z" />
    <glyph glyph-name="Uacute" unicode="&#xda;" horiz-adv-x="534" 
d="M482 197q0 -30 -12 -70.5t-43 -74t-72.5 -47.5t-86.5 -14t-81.5 12.5t-64.5 36t-48.5 66t-20.5 92.5v514h130v-514q0 -33 17.5 -51.5t36.5 -23t31 -4.5q29 0 50 13.5t27.5 31t6.5 34.5v514h130v-515zM393 962l-106 -175h-103l84 175h125z" />
    <glyph glyph-name="Ucircumflex" unicode="&#xdb;" horiz-adv-x="534" 
d="M482 197q0 -30 -12 -70.5t-43 -74t-72.5 -47.5t-86.5 -14t-81.5 12.5t-64.5 36t-48.5 66t-20.5 92.5v514h130v-514q0 -33 17.5 -51.5t36.5 -23t31 -4.5q29 0 50 13.5t27.5 31t6.5 34.5v514h130v-515zM429 780h-107l-55 71l-56 -71h-105l118 171h84z" />
    <glyph glyph-name="Udieresis" unicode="&#xdc;" horiz-adv-x="534" 
d="M482 197q0 -30 -12 -70.5t-43 -74t-72.5 -47.5t-86.5 -14t-81.5 12.5t-64.5 36t-48.5 66t-20.5 92.5v514h130v-514q0 -33 17.5 -51.5t36.5 -23t31 -4.5q29 0 50 13.5t27.5 31t6.5 34.5v514h130v-515zM432 784h-120v133h120v-133zM222 784h-120v133h120v-133z" />
    <glyph glyph-name="Yacute" unicode="&#xdd;" horiz-adv-x="521" 
d="M513 712l-187 -454v-258h-130v260l-187 452h142l110 -285l111 285h141zM375 962l-106 -175h-103l84 175h125z" />
    <glyph glyph-name="Thorn" unicode="&#xde;" horiz-adv-x="556" 
d="M63 712h129v-143h112q92 0 148.5 -58t56.5 -152q0 -96 -56 -154t-149 -58h-112v-147h-129v712zM303 441h-111v-166h111q23 0 41.5 9.5t27.5 29.5t9 45q0 38 -21 60t-57 22z" />
    <glyph glyph-name="germandbls" unicode="&#xdf;" horiz-adv-x="539" 
d="M470 523q0 -33 -14 -67t-39 -55q35 -22 55 -66t20 -82v-48q0 -61 -26 -110t-71 -72t-104 -23h-45v125h43q27 0 46 14.5t25 31.5t6 34v45q0 39 -19 59t-49 20h-54v122h42q26 0 41 19.5t15 47.5q0 22 -9.5 40t-28 27t-35.5 9q-19 0 -39 -9t-30.5 -27.5t-10.5 -42.5v-515
h-126v518q0 59 26.5 106.5t72 70t105.5 22.5q43 0 82 -13t66 -40.5t41 -64t14 -76.5z" />
    <glyph glyph-name="agrave" unicode="&#xe0;" horiz-adv-x="504" 
d="M446 0h-125v37q-38 -46 -114 -46q-48 0 -87 23t-61 60.5t-22 87.5q0 28 10 56.5t34 50.5t63 36t92 14h84v31q0 33 -20.5 50t-50.5 17q-28 0 -49 -15.5t-24 -42.5h-128q6 54 33 92t70.5 59.5t96.5 21.5q58 0 102.5 -21t70 -60.5t25.5 -97.5v-353zM228 101q29 0 51.5 13
t31.5 33.5t9 40.5v29h-84q-32 0 -52.5 -15.5t-20.5 -39.5q0 -28 18.5 -44.5t46.5 -16.5zM234 590l-106 175h125l84 -175h-103z" />
    <glyph glyph-name="aacute" unicode="&#xe1;" horiz-adv-x="504" 
d="M446 0h-125v37q-38 -46 -114 -46q-48 0 -87 23t-61 60.5t-22 87.5q0 28 10 56.5t34 50.5t63 36t92 14h84v31q0 33 -20.5 50t-50.5 17q-28 0 -49 -15.5t-24 -42.5h-128q6 54 33 92t70.5 59.5t96.5 21.5q58 0 102.5 -21t70 -60.5t25.5 -97.5v-353zM228 101q29 0 51.5 13
t31.5 33.5t9 40.5v29h-84q-32 0 -52.5 -15.5t-20.5 -39.5q0 -28 18.5 -44.5t46.5 -16.5zM375 765l-106 -175h-103l84 175h125z" />
    <glyph glyph-name="acircumflex" unicode="&#xe2;" horiz-adv-x="504" 
d="M446 0h-125v37q-38 -46 -114 -46q-48 0 -87 23t-61 60.5t-22 87.5q0 28 10 56.5t34 50.5t63 36t92 14h84v31q0 33 -20.5 50t-50.5 17q-28 0 -49 -15.5t-24 -42.5h-128q6 54 33 92t70.5 59.5t96.5 21.5q58 0 102.5 -21t70 -60.5t25.5 -97.5v-353zM228 101q29 0 51.5 13
t31.5 33.5t9 40.5v29h-84q-32 0 -52.5 -15.5t-20.5 -39.5q0 -28 18.5 -44.5t46.5 -16.5zM411 590h-107l-55 71l-56 -71h-105l118 171h84z" />
    <glyph glyph-name="atilde" unicode="&#xe3;" horiz-adv-x="507" 
d="M449 0h-125v37q-38 -46 -114 -46q-48 0 -87 23t-61 60.5t-22 87.5q0 28 10 56.5t34 50.5t63 36t92 14h84v31q0 33 -20.5 50t-50.5 17q-28 0 -49 -15.5t-24 -42.5h-128q6 54 33 92t70.5 59.5t96.5 21.5q58 0 102.5 -21t70 -60.5t25.5 -97.5v-353zM231 101q29 0 51.5 13
t31.5 33.5t9 40.5v29h-84q-32 0 -52.5 -15.5t-20.5 -39.5q0 -28 18.5 -44.5t46.5 -16.5zM361 720l67 -65q-30 -30 -58.5 -48.5t-60.5 -18.5q-21 0 -58.5 18.5t-50.5 18.5q-7 0 -16 -4t-35 -30l-68 64q66 68 118 68q21 0 58.5 -18.5t50.5 -18.5q21 0 53 34z" />
    <glyph glyph-name="adieresis" unicode="&#xe4;" horiz-adv-x="504" 
d="M446 0h-125v37q-38 -46 -114 -46q-48 0 -87 23t-61 60.5t-22 87.5q0 28 10 56.5t34 50.5t63 36t92 14h84v31q0 33 -20.5 50t-50.5 17q-28 0 -49 -15.5t-24 -42.5h-128q6 54 33 92t70.5 59.5t96.5 21.5q58 0 102.5 -21t70 -60.5t25.5 -97.5v-353zM228 101q29 0 51.5 13
t31.5 33.5t9 40.5v29h-84q-32 0 -52.5 -15.5t-20.5 -39.5q0 -28 18.5 -44.5t46.5 -16.5zM416 601h-120v133h120v-133zM206 601h-120v133h120v-133z" />
    <glyph glyph-name="aring" unicode="&#xe5;" horiz-adv-x="504" 
d="M446 0h-125v37q-38 -46 -114 -46q-48 0 -87 23t-61 60.5t-22 87.5q0 28 10 56.5t34 50.5t63 36t92 14h84v31q0 33 -20.5 50t-50.5 17q-28 0 -49 -15.5t-24 -42.5h-128q6 54 33 92t70.5 59.5t96.5 21.5q58 0 102.5 -21t70 -60.5t25.5 -97.5v-353zM228 101q29 0 51.5 13
t31.5 33.5t9 40.5v29h-84q-32 0 -52.5 -15.5t-20.5 -39.5q0 -28 18.5 -44.5t46.5 -16.5zM370 671q0 -34 -20 -64t-48 -42t-51 -12q-22 0 -49.5 12t-48 42t-20.5 64q0 35 20.5 65t48 41.5t49.5 11.5q23 0 51 -11.5t48 -41t20 -65.5zM211 671q0 -17 12 -29t29 -12t29 12t12 29
t-12 29t-29 12t-29 -12t-12 -29z" />
    <glyph glyph-name="ae" unicode="&#xe6;" horiz-adv-x="781" 
d="M734 217h-286v-29q0 -23 9.5 -43.5t28.5 -30t42 -9.5q33 0 54 19t25 51h127q-10 -86 -65.5 -135t-140.5 -49q-49 0 -88.5 19t-62.5 54q-55 -73 -169 -73q-39 0 -80.5 20t-66 61.5t-24.5 91.5q0 48 22 82t65 54.5t108 20.5h91v30q0 25 -13 41.5t-30.5 21.5t-31.5 5
q-28 0 -48 -15t-24 -42h-126q3 32 16.5 63.5t43 58t68 37.5t69.5 11q42 0 80 -13.5t64 -40.5q24 26 59.5 40t77.5 14q93 0 149.5 -53t56.5 -142v-120zM323 199v20h-91q-33 0 -51 -16t-18 -38q0 -30 18 -47.5t48 -17.5q18 0 40 9t38 33t16 57zM448 337v-15h161v15
q0 31 -15 50.5t-32 25t-34 5.5q-37 0 -58.5 -22.5t-21.5 -58.5z" />
    <glyph glyph-name="ccedilla" unicode="&#xe7;" horiz-adv-x="497" 
d="M259 532q53 0 96 -21t73.5 -65t36.5 -111h-130q-2 29 -18 49t-33.5 24t-24.5 4q-36 0 -56.5 -20t-20.5 -56v-147q0 -37 20 -58t57 -21q33 0 52 21t23 56h131q-7 -88 -64 -142t-142 -54q-92 0 -148.5 53.5t-56.5 144.5v147q0 88 57 142t148 54zM318 -43l-91 -178h-124
l107 178h108z" />
    <glyph glyph-name="egrave" unicode="&#xe8;" 
d="M464 215h-283v-27q0 -22 9 -42t27 -29.5t41 -9.5q33 0 52.5 17.5t23.5 49.5h130q-11 -85 -66.5 -134t-139.5 -49q-92 0 -148.5 53.5t-56.5 144.5v147q0 88 57 142t148 54q45 0 83.5 -13.5t65.5 -39.5t42 -62.5t15 -80.5v-121zM181 338v-21h155v21q0 21 -9.5 40.5
t-27.5 29t-41 9.5q-36 0 -56.5 -21.5t-20.5 -57.5zM238 590l-106 175h125l84 -175h-103z" />
    <glyph glyph-name="eacute" unicode="&#xe9;" 
d="M464 215h-283v-27q0 -22 9 -42t27 -29.5t41 -9.5q33 0 52.5 17.5t23.5 49.5h130q-11 -85 -66.5 -134t-139.5 -49q-92 0 -148.5 53.5t-56.5 144.5v147q0 88 57 142t148 54q45 0 83.5 -13.5t65.5 -39.5t42 -62.5t15 -80.5v-121zM181 338v-21h155v21q0 21 -9.5 40.5
t-27.5 29t-41 9.5q-36 0 -56.5 -21.5t-20.5 -57.5zM379 765l-106 -175h-103l84 175h125z" />
    <glyph glyph-name="ecircumflex" unicode="&#xea;" 
d="M464 215h-283v-27q0 -22 9 -42t27 -29.5t41 -9.5q33 0 52.5 17.5t23.5 49.5h130q-11 -85 -66.5 -134t-139.5 -49q-92 0 -148.5 53.5t-56.5 144.5v147q0 88 57 142t148 54q45 0 83.5 -13.5t65.5 -39.5t42 -62.5t15 -80.5v-121zM181 338v-21h155v21q0 21 -9.5 40.5
t-27.5 29t-41 9.5q-36 0 -56.5 -21.5t-20.5 -57.5zM420 590h-107l-55 71l-56 -71h-105l118 171h84z" />
    <glyph glyph-name="edieresis" unicode="&#xeb;" 
d="M464 215h-283v-27q0 -22 9 -42t27 -29.5t41 -9.5q33 0 52.5 17.5t23.5 49.5h130q-11 -85 -66.5 -134t-139.5 -49q-92 0 -148.5 53.5t-56.5 144.5v147q0 88 57 142t148 54q45 0 83.5 -13.5t65.5 -39.5t42 -62.5t15 -80.5v-121zM181 338v-21h155v21q0 21 -9.5 40.5
t-27.5 29t-41 9.5q-36 0 -56.5 -21.5t-20.5 -57.5zM425 601h-120v133h120v-133zM215 601h-120v133h120v-133z" />
    <glyph glyph-name="igrave" unicode="&#xec;" horiz-adv-x="250" 
d="M188 0h-125v525h125v-525zM73 590l-106 175h125l84 -175h-103z" />
    <glyph glyph-name="iacute" unicode="&#xed;" horiz-adv-x="250" 
d="M188 0h-125v525h125v-525zM285 765l-106 -175h-103l84 175h125z" />
    <glyph glyph-name="icircumflex" unicode="&#xee;" horiz-adv-x="250" 
d="M188 0h-125v525h125v-525zM287 590h-107l-55 71l-56 -71h-105l118 171h84z" />
    <glyph glyph-name="idieresis" unicode="&#xef;" horiz-adv-x="250" 
d="M188 0h-125v525h125v-525zM291 601h-120v133h120v-133zM81 601h-120v133h120v-133z" />
    <glyph glyph-name="eth" unicode="&#xf0;" horiz-adv-x="506" 
d="M436 678l-61 -61l14 -14q23 -22 38 -47.5t20.5 -55t5.5 -57.5v-259q0 -27 -10 -59.5t-33.5 -63t-64 -50t-96.5 -19.5q-43 0 -82.5 14t-67 43t-42 65.5t-14.5 71.5v72q0 29 10.5 62.5t34 64t61.5 50t89 19.5q22 0 46.5 -8t42.5 -21v30q0 39 -30 69l-8 7l-52 -52l-60 59
l53 52l-56 56l83 85l58 -56l62 62zM327 189v68q0 23 -10 41t-29.5 25.5t-38.5 7.5t-39 -7.5t-30.5 -25.5t-10.5 -41v-68q0 -23 10.5 -40.5t30.5 -25.5t39 -8q28 0 47 12.5t25 28.5t6 33z" />
    <glyph glyph-name="ntilde" unicode="&#xf1;" horiz-adv-x="525" 
d="M191 525v-29q19 16 46.5 25.5t56.5 9.5q27 0 57 -9t58.5 -34.5t43 -67t14.5 -85.5v-335h-128v335q0 40 -20.5 57.5t-49.5 17.5q-32 0 -54 -23t-24 -59v-328h-128v525h128zM369 720l67 -65q-30 -30 -58.5 -48.5t-60.5 -18.5q-21 0 -58.5 18.5t-50.5 18.5q-7 0 -16 -4
t-35 -30l-68 64q66 68 118 68q21 0 58.5 -18.5t50.5 -18.5q21 0 53 34z" />
    <glyph glyph-name="ograve" unicode="&#xf2;" 
d="M464 336v-147q0 -89 -57.5 -143.5t-148.5 -54.5q-92 0 -148.5 53.5t-56.5 144.5v147q0 88 57 142t148 54q45 0 83.5 -13.5t65.5 -39.5t42 -62.5t15 -80.5zM336 189v147q0 21 -9.5 39.5t-28.5 27t-40 8.5q-36 0 -56.5 -20t-20.5 -55v-147q0 -22 9 -41.5t28 -28t40 -8.5
q35 0 56.5 21.5t21.5 56.5zM241 590l-106 175h125l84 -175h-103z" />
    <glyph glyph-name="oacute" unicode="&#xf3;" 
d="M464 336v-147q0 -89 -57.5 -143.5t-148.5 -54.5q-92 0 -148.5 53.5t-56.5 144.5v147q0 88 57 142t148 54q45 0 83.5 -13.5t65.5 -39.5t42 -62.5t15 -80.5zM336 189v147q0 21 -9.5 39.5t-28.5 27t-40 8.5q-36 0 -56.5 -20t-20.5 -55v-147q0 -22 9 -41.5t28 -28t40 -8.5
q35 0 56.5 21.5t21.5 56.5zM384 765l-106 -175h-103l84 175h125z" />
    <glyph glyph-name="ocircumflex" unicode="&#xf4;" 
d="M464 336v-147q0 -89 -57.5 -143.5t-148.5 -54.5q-92 0 -148.5 53.5t-56.5 144.5v147q0 88 57 142t148 54q45 0 83.5 -13.5t65.5 -39.5t42 -62.5t15 -80.5zM336 189v147q0 21 -9.5 39.5t-28.5 27t-40 8.5q-36 0 -56.5 -20t-20.5 -55v-147q0 -22 9 -41.5t28 -28t40 -8.5
q35 0 56.5 21.5t21.5 56.5zM421 590h-107l-55 71l-56 -71h-105l118 171h84z" />
    <glyph glyph-name="otilde" unicode="&#xf5;" 
d="M464 336v-147q0 -89 -57.5 -143.5t-148.5 -54.5q-92 0 -148.5 53.5t-56.5 144.5v147q0 88 57 142t148 54q45 0 83.5 -13.5t65.5 -39.5t42 -62.5t15 -80.5zM336 189v147q0 21 -9.5 39.5t-28.5 27t-40 8.5q-36 0 -56.5 -20t-20.5 -55v-147q0 -22 9 -41.5t28 -28t40 -8.5
q35 0 56.5 21.5t21.5 56.5zM366 720l67 -65q-30 -30 -58.5 -48.5t-60.5 -18.5q-21 0 -58.5 18.5t-50.5 18.5q-7 0 -16 -4t-35 -30l-68 64q66 68 118 68q21 0 58.5 -18.5t50.5 -18.5q21 0 53 34z" />
    <glyph glyph-name="odieresis" unicode="&#xf6;" 
d="M464 336v-147q0 -89 -57.5 -143.5t-148.5 -54.5q-92 0 -148.5 53.5t-56.5 144.5v147q0 88 57 142t148 54q45 0 83.5 -13.5t65.5 -39.5t42 -62.5t15 -80.5zM336 189v147q0 21 -9.5 39.5t-28.5 27t-40 8.5q-36 0 -56.5 -20t-20.5 -55v-147q0 -22 9 -41.5t28 -28t40 -8.5
q35 0 56.5 21.5t21.5 56.5zM424 601h-120v133h120v-133zM214 601h-120v133h120v-133z" />
    <glyph glyph-name="divide" unicode="&#xf7;" horiz-adv-x="507" 
d="M448 176h-388v86h388v-86zM325 0h-141v141h141v-141zM325 291h-141v141h141v-141z" />
    <glyph glyph-name="oslash" unicode="&#xf8;" 
d="M466 336v-147q0 -89 -57.5 -143.5t-148.5 -54.5q-50 0 -96 18l-29 -61h-58l42 89q-31 25 -47.5 64.5t-16.5 87.5v147q0 88 57 142t148 54q46 0 89 -16l29 61h57l-41 -85q34 -25 53 -65.5t19 -90.5zM338 189v147q0 13 -5 28l-116 -244q17 -9 43 -9q35 0 56.5 21.5
t21.5 56.5zM183 189l1 -17l111 233q-18 6 -35 6q-36 0 -56.5 -20t-20.5 -55v-147z" />
    <glyph glyph-name="ugrave" unicode="&#xf9;" horiz-adv-x="525" 
d="M335 0v28q-19 -16 -46.5 -25.5t-56.5 -9.5q-27 0 -57 9t-58.5 34.5t-43 67t-14.5 85.5v336h128v-336q0 -22 7.5 -40t25 -26.5t37.5 -8.5q32 0 55 23t23 59v329h128v-525h-128zM246 590l-106 175h125l84 -175h-103z" />
    <glyph glyph-name="uacute" unicode="&#xfa;" horiz-adv-x="525" 
d="M335 0v28q-19 -16 -46.5 -25.5t-56.5 -9.5q-27 0 -57 9t-58.5 34.5t-43 67t-14.5 85.5v336h128v-336q0 -22 7.5 -40t25 -26.5t37.5 -8.5q32 0 55 23t23 59v329h128v-525h-128zM389 765l-106 -175h-103l84 175h125z" />
    <glyph glyph-name="ucircumflex" unicode="&#xfb;" horiz-adv-x="525" 
d="M335 0v28q-19 -16 -46.5 -25.5t-56.5 -9.5q-27 0 -57 9t-58.5 34.5t-43 67t-14.5 85.5v336h128v-336q0 -22 7.5 -40t25 -26.5t37.5 -8.5q32 0 55 23t23 59v329h128v-525h-128zM426 590h-107l-55 71l-56 -71h-105l118 171h84z" />
    <glyph glyph-name="udieresis" unicode="&#xfc;" horiz-adv-x="526" 
d="M336 0v28q-19 -16 -46.5 -25.5t-56.5 -9.5q-27 0 -57 9t-58.5 34.5t-43 67t-14.5 85.5v336h128v-336q0 -22 7.5 -40t25 -26.5t37.5 -8.5q32 0 55 23t23 59v329h128v-525h-128zM424 601h-120v133h120v-133zM214 601h-120v133h120v-133z" />
    <glyph glyph-name="yacute" unicode="&#xfd;" horiz-adv-x="470" 
d="M132 -90q14 0 27.5 6t17.5 21l16 63h-35l-147 525h134l90 -369l92 369h133l-169 -603q-19 -70 -55.5 -101.5t-115.5 -31.5h-62v121h74zM357 765l-106 -175h-103l84 175h125z" />
    <glyph glyph-name="thorn" unicode="&#xfe;" horiz-adv-x="519" 
d="M286 -9q-23 0 -48 8.5t-46 24.5v-232h-128v887h128v-179q20 15 46 23.5t48 8.5q80 0 130.5 -53.5t50.5 -142.5v-147q0 -89 -50.5 -143.5t-130.5 -54.5zM339 189v147q0 21 -8.5 39.5t-26.5 27t-38 8.5q-35 0 -54.5 -19.5t-19.5 -55.5v-147q0 -23 8 -41.5t25.5 -27.5
t40.5 -9q34 0 53.5 21.5t19.5 56.5z" />
    <glyph glyph-name="ydieresis" unicode="&#xff;" horiz-adv-x="470" 
d="M132 -90q14 0 27.5 6t17.5 21l16 63h-35l-147 525h134l90 -369l92 369h133l-169 -603q-19 -70 -55.5 -101.5t-115.5 -31.5h-62v121h74zM399 601h-120v133h120v-133zM189 601h-120v133h120v-133z" />
    <glyph glyph-name="Amacron" unicode="&#x100;" horiz-adv-x="555" 
d="M374 163h-192l-42 -163h-130l189 712h158l189 -712h-130zM342 292l-64 257l-64 -257h128zM439 790h-321v94h321v-94z" />
    <glyph glyph-name="amacron" unicode="&#x101;" horiz-adv-x="504" 
d="M446 0h-125v37q-38 -46 -114 -46q-48 0 -87 23t-61 60.5t-22 87.5q0 28 10 56.5t34 50.5t63 36t92 14h84v31q0 33 -20.5 50t-50.5 17q-28 0 -49 -15.5t-24 -42.5h-128q6 54 33 92t70.5 59.5t96.5 21.5q58 0 102.5 -21t70 -60.5t25.5 -97.5v-353zM228 101q29 0 51.5 13
t31.5 33.5t9 40.5v29h-84q-32 0 -52.5 -15.5t-20.5 -39.5q0 -28 18.5 -44.5t46.5 -16.5zM412 604h-321v94h321v-94z" />
    <glyph glyph-name="Abreve" unicode="&#x102;" horiz-adv-x="555" 
d="M374 163h-192l-42 -163h-130l189 712h158l189 -712h-130zM342 292l-64 257l-64 -257h128zM278 770q-51 0 -87 20.5t-56 56t-23 87.5h102q4 -73 64 -73t64 73h102q-3 -52 -23 -87.5t-56 -56t-87 -20.5z" />
    <glyph glyph-name="abreve" unicode="&#x103;" horiz-adv-x="504" 
d="M446 0h-125v37q-38 -46 -114 -46q-48 0 -87 23t-61 60.5t-22 87.5q0 28 10 56.5t34 50.5t63 36t92 14h84v31q0 33 -20.5 50t-50.5 17q-28 0 -49 -15.5t-24 -42.5h-128q6 54 33 92t70.5 59.5t96.5 21.5q58 0 102.5 -21t70 -60.5t25.5 -97.5v-353zM228 101q29 0 51.5 13
t31.5 33.5t9 40.5v29h-84q-32 0 -52.5 -15.5t-20.5 -39.5q0 -28 18.5 -44.5t46.5 -16.5zM257 573q-51 0 -87 20.5t-56 56t-23 87.5h102q4 -73 64 -73t64 73h102q-3 -52 -23 -87.5t-56 -56t-87 -20.5z" />
    <glyph glyph-name="Aogonek" unicode="&#x104;" horiz-adv-x="592" 
d="M374 163h-192l-42 -163h-130l189 712h158l189 -712h-130zM342 292l-64 257l-64 -257h128zM525 -221l-91 178h108l107 -178h-124z" />
    <glyph glyph-name="aogonek" unicode="&#x105;" horiz-adv-x="504" 
d="M446 0h-125v37q-38 -46 -114 -46q-48 0 -87 23t-61 60.5t-22 87.5q0 28 10 56.5t34 50.5t63 36t92 14h84v31q0 33 -20.5 50t-50.5 17q-28 0 -49 -15.5t-24 -42.5h-128q6 54 33 92t70.5 59.5t96.5 21.5q58 0 102.5 -21t70 -60.5t25.5 -97.5v-353zM228 101q29 0 51.5 13
t31.5 33.5t9 40.5v29h-84q-32 0 -52.5 -15.5t-20.5 -39.5q0 -28 18.5 -44.5t46.5 -16.5zM423 -221l-91 178h108l107 -178h-124z" />
    <glyph glyph-name="Cacute" unicode="&#x106;" horiz-adv-x="515" 
d="M482 216q0 -35 -11 -74t-36 -73.5t-67.5 -56t-100.5 -21.5t-100.5 21.5t-67 54t-35.5 67.5t-11 64v317q0 28 12 67.5t43.5 72.5t73 47.5t86.5 14.5q57 0 99 -23t67 -58t36.5 -73t11.5 -68h-130q0 35 -13 55.5t-32 29.5t-39 9q-21 0 -42 -8t-32 -26t-11 -42v-315
q0 -33 17.5 -51.5t36.5 -23t31 -4.5q22 0 41 9.5t31 31t12 56.5h130zM415 962l-106 -175h-103l84 175h125z" />
    <glyph glyph-name="cacute" unicode="&#x107;" horiz-adv-x="497" 
d="M259 532q53 0 96 -21t73.5 -65t36.5 -111h-130q-2 29 -18 49t-33.5 24t-24.5 4q-36 0 -56.5 -20t-20.5 -56v-147q0 -37 20 -58t57 -21q33 0 52 21t23 56h131q-7 -88 -64 -142t-142 -54q-92 0 -148.5 53.5t-56.5 144.5v147q0 88 57 142t148 54zM384 765l-106 -175h-103
l84 175h125z" />
    <glyph glyph-name="Ccaron" unicode="&#x10c;" horiz-adv-x="515" 
d="M482 216q0 -35 -11 -74t-36 -73.5t-67.5 -56t-100.5 -21.5t-100.5 21.5t-67 54t-35.5 67.5t-11 64v317q0 28 12 67.5t43.5 72.5t73 47.5t86.5 14.5q57 0 99 -23t67 -58t36.5 -73t11.5 -68h-130q0 35 -13 55.5t-32 29.5t-39 9q-21 0 -42 -8t-32 -26t-11 -42v-315
q0 -33 17.5 -51.5t36.5 -23t31 -4.5q22 0 41 9.5t31 31t12 56.5h130zM104 952h107l55 -71l56 71h105l-118 -171h-84z" />
    <glyph glyph-name="ccaron" unicode="&#x10d;" horiz-adv-x="497" 
d="M259 532q53 0 96 -21t73.5 -65t36.5 -111h-130q-2 29 -18 49t-33.5 24t-24.5 4q-36 0 -56.5 -20t-20.5 -56v-147q0 -37 20 -58t57 -21q33 0 52 21t23 56h131q-7 -88 -64 -142t-142 -54q-92 0 -148.5 53.5t-56.5 144.5v147q0 88 57 142t148 54zM98 761h107l55 -71l56 71
h105l-118 -171h-84z" />
    <glyph glyph-name="Dcaron" unicode="&#x10e;" horiz-adv-x="542" 
d="M490 204q0 -29 -9 -63.5t-31 -66.5t-62.5 -53t-98.5 -21h-226v712h222q45 0 80.5 -12.5t62 -36.5t44.5 -65t18 -89v-305zM360 205v301q0 24 -9.5 42.5t-28.5 26.5t-39 8h-90v-454h92q20 0 38 8t27.5 26t9.5 42zM97 951h107l55 -71l56 71h105l-118 -171h-84z" />
    <glyph glyph-name="dcaron" unicode="&#x10f;" horiz-adv-x="658" 
d="M235 -9q-80 0 -130.5 54.5t-50.5 143.5v147q0 89 50.5 142.5t130.5 53.5q22 0 48 -8.5t46 -23.5v201h128v-701h-128v24q-16 -12 -40.5 -22.5t-53.5 -10.5zM182 336v-147q0 -35 19.5 -56.5t53.5 -21.5q23 0 40.5 9t25.5 27.5t8 41.5v147q0 36 -19.5 55.5t-54.5 19.5
q-20 0 -38 -8.5t-26.5 -27t-8.5 -39.5zM644 547h-101v206h101v-206z" />
    <glyph glyph-name="Dcroat" unicode="&#x110;" horiz-adv-x="597" 
d="M539 204q0 -60 -27 -109t-71.5 -72t-103.5 -23h-227v300h-51v123h51v289h224q45 0 80 -12.5t61.5 -36.5t45 -65t18.5 -89v-305zM409 205v301q0 24 -9.5 42.5t-28 26.5t-37.5 8h-94v-160h102v-123h-102v-171h95q19 0 37 8t27.5 26t9.5 42z" />
    <glyph glyph-name="dcroat" unicode="&#x111;" horiz-adv-x="519" 
d="M235 -9q-80 0 -130.5 54.5t-50.5 143.5v147q0 89 50.5 142.5t130.5 53.5q22 0 48 -8.5t46 -23.5v64h-113v84h113v53h128v-53h66v-84h-66v-564h-128v24q-16 -12 -40.5 -22.5t-53.5 -10.5zM182 336v-147q0 -35 19.5 -56.5t53.5 -21.5q23 0 40.5 9t25.5 27.5t8 41.5v147
q0 36 -19.5 55.5t-54.5 19.5q-20 0 -38 -8.5t-26.5 -27t-8.5 -39.5z" />
    <glyph glyph-name="Emacron" unicode="&#x112;" horiz-adv-x="507" 
d="M475 0h-412v712h412v-129h-282v-144h261v-129h-261v-181h282v-129zM428 790h-321v94h321v-94z" />
    <glyph glyph-name="emacron" unicode="&#x113;" 
d="M464 215h-283v-27q0 -22 9 -42t27 -29.5t41 -9.5q33 0 52.5 17.5t23.5 49.5h130q-11 -85 -66.5 -134t-139.5 -49q-92 0 -148.5 53.5t-56.5 144.5v147q0 88 57 142t148 54q45 0 83.5 -13.5t65.5 -39.5t42 -62.5t15 -80.5v-121zM181 338v-21h155v21q0 21 -9.5 40.5
t-27.5 29t-41 9.5q-36 0 -56.5 -21.5t-20.5 -57.5zM421 604h-321v94h321v-94z" />
    <glyph glyph-name="Edotaccent" unicode="&#x116;" horiz-adv-x="507" 
d="M475 0h-412v712h412v-129h-282v-144h261v-129h-261v-181h282v-129zM331 770h-126v141h126v-141z" />
    <glyph glyph-name="edotaccent" unicode="&#x117;" 
d="M464 215h-283v-27q0 -22 9 -42t27 -29.5t41 -9.5q33 0 52.5 17.5t23.5 49.5h130q-11 -85 -66.5 -134t-139.5 -49q-92 0 -148.5 53.5t-56.5 144.5v147q0 88 57 142t148 54q45 0 83.5 -13.5t65.5 -39.5t42 -62.5t15 -80.5v-121zM181 338v-21h155v21q0 21 -9.5 40.5
t-27.5 29t-41 9.5q-36 0 -56.5 -21.5t-20.5 -57.5zM319 587h-126v141h126v-141z" />
    <glyph glyph-name="Eogonek" unicode="&#x118;" horiz-adv-x="507" 
d="M475 0h-412v712h412v-129h-282v-144h261v-129h-261v-181h282v-129zM284 -221l-91 178h108l107 -178h-124z" />
    <glyph glyph-name="eogonek" unicode="&#x119;" 
d="M464 215h-283v-27q0 -22 9 -42t27 -29.5t41 -9.5q33 0 52.5 17.5t23.5 49.5h130q-11 -85 -66.5 -134t-139.5 -49q-92 0 -148.5 53.5t-56.5 144.5v147q0 88 57 142t148 54q45 0 83.5 -13.5t65.5 -39.5t42 -62.5t15 -80.5v-121zM181 338v-21h155v21q0 21 -9.5 40.5
t-27.5 29t-41 9.5q-36 0 -56.5 -21.5t-20.5 -57.5zM295 -221l-91 178h108l107 -178h-124z" />
    <glyph glyph-name="Ecaron" unicode="&#x11a;" horiz-adv-x="507" 
d="M475 0h-412v712h412v-129h-282v-144h261v-129h-261v-181h282v-129zM107 951h107l55 -71l56 71h105l-118 -171h-84z" />
    <glyph glyph-name="ecaron" unicode="&#x11b;" 
d="M464 215h-283v-27q0 -22 9 -42t27 -29.5t41 -9.5q33 0 52.5 17.5t23.5 49.5h130q-11 -85 -66.5 -134t-139.5 -49q-92 0 -148.5 53.5t-56.5 144.5v147q0 88 57 142t148 54q45 0 83.5 -13.5t65.5 -39.5t42 -62.5t15 -80.5v-121zM181 338v-21h155v21q0 21 -9.5 40.5
t-27.5 29t-41 9.5q-36 0 -56.5 -21.5t-20.5 -57.5zM94 761h107l55 -71l56 71h105l-118 -171h-84z" />
    <glyph glyph-name="Gcommaaccent" unicode="&#x122;" horiz-adv-x="534" 
d="M482 197q0 -28 -11 -63t-36 -68t-68 -54t-101 -21q-44 0 -84.5 14.5t-69 45t-44 70t-15.5 77.5v318q0 37 13 70t35 61t64.5 49t102.5 21q43 0 83.5 -15t69.5 -47t45 -74.5t16 -84.5h-130q0 34 -13 54t-32 29t-39 9q-21 0 -42 -7.5t-32 -25.5t-11 -41v-318
q0 -23 10.5 -41.5t32 -26.5t42.5 -8q20 0 39 7t32 23.5t13 45.5v95h-105v127h235v-221zM328 -43l-91 -178h-124l107 178h108z" />
    <glyph glyph-name="gcommaaccent" unicode="&#x123;" horiz-adv-x="519" 
d="M234 -9q-80 0 -130.5 54.5t-50.5 143.5v147q0 89 50.5 142.5t130.5 53.5q22 0 48 -8.5t46 -23.5v25h128v-545q0 -91 -51 -141t-152 -50q-32 0 -65 9t-60 29t-45 49.5t-24 67.5h132q5 -25 21 -35.5t45 -10.5q34 0 52.5 18.5t18.5 63.5v44q-16 -12 -40.5 -22.5t-53.5 -10.5
zM181 336v-147q0 -35 19.5 -56.5t53.5 -21.5q19 0 37 7.5t27 24.5t10 38v155q0 36 -19.5 55.5t-54.5 19.5q-20 0 -38 -8.5t-26.5 -27t-8.5 -39.5zM403 765l-106 -175h-103l84 175h125z" />
    <glyph glyph-name="Imacron" unicode="&#x12a;" horiz-adv-x="255" 
d="M63 712h130v-712h-130v712zM289 790h-321v94h321v-94z" />
    <glyph glyph-name="imacron" unicode="&#x12b;" horiz-adv-x="250" 
d="M188 0h-125v525h125v-525zM286 604h-321v94h321v-94z" />
    <glyph glyph-name="Iogonek" unicode="&#x12e;" horiz-adv-x="255" 
d="M63 712h130v-712h-130v712zM164 -221l-91 178h108l107 -178h-124z" />
    <glyph glyph-name="iogonek" unicode="&#x12f;" horiz-adv-x="253" 
d="M191 0h-128v525h128v-525zM194 569h-134v142h134v-142zM161 -221l-91 178h108l107 -178h-124z" />
    <glyph glyph-name="dotlessi" unicode="&#x131;" horiz-adv-x="250" 
d="M188 0h-125v525h125v-525z" />
    <glyph glyph-name="Kcommaaccent" unicode="&#x136;" horiz-adv-x="536" 
d="M193 712v-283l186 283h150l-215 -314l219 -398h-149l-149 284l-42 -63v-221h-130v712h130zM325 -43l-91 -178h-124l107 178h108z" />
    <glyph glyph-name="kcommaaccent" unicode="&#x137;" horiz-adv-x="525" 
d="M518 525l-199 -217l200 -308h-154l-132 214l-42 -46v-168h-128v701h128v-361l164 185h163zM326 -43l-91 -178h-124l107 178h108z" />
    <glyph glyph-name="Lacute" unicode="&#x139;" horiz-adv-x="471" 
d="M474 0h-411v712h130v-583h281v-129zM291 962l-106 -175h-103l84 175h125z" />
    <glyph glyph-name="lacute" unicode="&#x13a;" horiz-adv-x="269" 
d="M59 149v552h128v-555q0 -11 5.5 -18t15.5 -7h51v-121h-57q-77 0 -110 34.5t-33 114.5zM283 962l-106 -175h-103l84 175h125z" />
    <glyph glyph-name="Lcommaaccent" unicode="&#x13b;" horiz-adv-x="471" 
d="M474 0h-411v712h130v-583h281v-129zM322 -43l-91 -178h-124l107 178h108z" />
    <glyph glyph-name="lcommaaccent" unicode="&#x13c;" horiz-adv-x="269" 
d="M59 149v552h128v-555q0 -11 5.5 -18t15.5 -7h51v-121h-57q-77 0 -110 34.5t-33 114.5zM255 -43l-91 -178h-124l107 178h108z" />
    <glyph glyph-name="Lcaron" unicode="&#x13d;" horiz-adv-x="506" 
d="M474 0h-411v712h130v-583h281v-129zM443 547h-101v206h101v-206z" />
    <glyph glyph-name="lcaron" unicode="&#x13e;" horiz-adv-x="394" 
d="M59 149v552h128v-555q0 -11 5.5 -18t15.5 -7h51v-121h-57q-77 0 -110 34.5t-33 114.5zM371 547h-101v206h101v-206z" />
    <glyph glyph-name="Lslash" unicode="&#x141;" horiz-adv-x="470" 
d="M473 0h-410v230h-70v125h70v357h130v-357h194v-125h-194v-101h280v-129z" />
    <glyph glyph-name="lslash" unicode="&#x142;" horiz-adv-x="286" 
d="M63 149v83h-76v120h76v349h128v-349h79v-120h-79v-86q0 -11 5.5 -18t15.5 -7h51v-121h-57q-77 0 -110 34.5t-33 114.5z" />
    <glyph glyph-name="Nacute" unicode="&#x143;" horiz-adv-x="557" 
d="M495 0h-131l-171 404v-404h-130v712h129l173 -412v412h130v-712zM409 962l-106 -175h-103l84 175h125z" />
    <glyph glyph-name="nacute" unicode="&#x144;" horiz-adv-x="525" 
d="M191 525v-29q19 16 46.5 25.5t56.5 9.5q27 0 57 -9t58.5 -34.5t43 -67t14.5 -85.5v-335h-128v335q0 40 -20.5 57.5t-49.5 17.5q-32 0 -54 -23t-24 -59v-328h-128v525h128zM377 765l-106 -175h-103l84 175h125z" />
    <glyph glyph-name="Ncommaaccent" unicode="&#x145;" horiz-adv-x="557" 
d="M495 0h-131l-171 404v-404h-130v712h129l173 -412v412h130v-712zM333 -43l-91 -178h-124l107 178h108z" />
    <glyph glyph-name="ncommaaccent" unicode="&#x146;" horiz-adv-x="525" 
d="M191 525v-29q19 16 46.5 25.5t56.5 9.5q27 0 57 -9t58.5 -34.5t43 -67t14.5 -85.5v-335h-128v335q0 40 -20.5 57.5t-49.5 17.5q-32 0 -54 -23t-24 -59v-328h-128v525h128zM320 -43l-91 -178h-124l107 178h108z" />
    <glyph glyph-name="Ncaron" unicode="&#x147;" horiz-adv-x="557" 
d="M495 0h-131l-171 404v-404h-130v712h129l173 -412v412h130v-712zM119 951h107l55 -71l56 71h105l-118 -171h-84z" />
    <glyph glyph-name="ncaron" unicode="&#x148;" horiz-adv-x="525" 
d="M191 525v-29q19 16 46.5 25.5t56.5 9.5q27 0 57 -9t58.5 -34.5t43 -67t14.5 -85.5v-335h-128v335q0 40 -20.5 57.5t-49.5 17.5q-32 0 -54 -23t-24 -59v-328h-128v525h128zM102 761h107l55 -71l56 71h105l-118 -171h-84z" />
    <glyph glyph-name="Omacron" unicode="&#x14c;" horiz-adv-x="534" 
d="M482 197q0 -29 -12.5 -69t-44 -74t-73 -48.5t-85.5 -14.5q-58 0 -100.5 21.5t-67 54t-35.5 67.5t-11 64v317q0 28 12 67.5t43.5 72.5t73 47.5t86.5 14.5q43 0 83.5 -14.5t69.5 -44.5t45 -69t16 -75v-317zM352 198v315q0 38 -24.5 57t-59.5 19q-21 0 -42 -8t-32 -26
t-11 -42v-315q0 -33 17.5 -51.5t36.5 -23t31 -4.5q29 0 50 13.5t27.5 31t6.5 34.5zM428 790h-321v94h321v-94z" />
    <glyph glyph-name="omacron" unicode="&#x14d;" 
d="M464 336v-147q0 -89 -57.5 -143.5t-148.5 -54.5q-92 0 -148.5 53.5t-56.5 144.5v147q0 88 57 142t148 54q45 0 83.5 -13.5t65.5 -39.5t42 -62.5t15 -80.5zM336 189v147q0 21 -9.5 39.5t-28.5 27t-40 8.5q-36 0 -56.5 -20t-20.5 -55v-147q0 -22 9 -41.5t28 -28t40 -8.5
q35 0 56.5 21.5t21.5 56.5zM420 604h-321v94h321v-94z" />
    <glyph glyph-name="Ohungarumlaut" unicode="&#x150;" horiz-adv-x="577" 
d="M482 197q0 -29 -12.5 -69t-44 -74t-73 -48.5t-85.5 -14.5q-58 0 -100.5 21.5t-67 54t-35.5 67.5t-11 64v317q0 28 12 67.5t43.5 72.5t73 47.5t86.5 14.5q43 0 83.5 -14.5t69.5 -44.5t45 -69t16 -75v-317zM352 198v315q0 38 -24.5 57t-59.5 19q-21 0 -42 -8t-32 -26
t-11 -42v-315q0 -33 17.5 -51.5t36.5 -23t31 -4.5q29 0 50 13.5t27.5 31t6.5 34.5zM338 946l-105 -176h-100l86 176h119zM503 946l-105 -176h-100l85 176h120z" />
    <glyph glyph-name="ohungarumlaut" unicode="&#x151;" 
d="M464 336v-147q0 -89 -57.5 -143.5t-148.5 -54.5q-92 0 -148.5 53.5t-56.5 144.5v147q0 88 57 142t148 54q45 0 83.5 -13.5t65.5 -39.5t42 -62.5t15 -80.5zM336 189v147q0 21 -9.5 39.5t-28.5 27t-40 8.5q-36 0 -56.5 -20t-20.5 -55v-147q0 -22 9 -41.5t28 -28t40 -8.5
q35 0 56.5 21.5t21.5 56.5zM300 755l-105 -176h-100l86 176h119zM465 755l-105 -176h-100l85 176h120z" />
    <glyph glyph-name="OE" unicode="&#x152;" horiz-adv-x="796" 
d="M764 0h-413v17q-13 -10 -43 -18t-52 -8q-39 0 -76.5 14.5t-65.5 45.5t-44.5 71t-16.5 76v318q0 27 11 61.5t35 66t64 52.5t94 21q23 0 51.5 -6t42.5 -17v18h413v-129h-283v-144h262v-129h-262v-181h283v-129zM267 120q20 0 40.5 7.5t32 24t11.5 38.5v323q0 24 -11 42
t-31.5 25.5t-41.5 7.5q-36 0 -60 -18.5t-24 -56.5v-316q0 -23 10.5 -41.5t32 -27t41.5 -8.5z" />
    <glyph glyph-name="oe" unicode="&#x153;" horiz-adv-x="802" 
d="M750 216h-286v-28q0 -23 9.5 -43t28.5 -29.5t42 -9.5q33 0 54 18.5t25 50.5h127q-10 -86 -65.5 -135t-140.5 -49q-46 0 -83 16t-60 45q-24 -29 -61 -45t-82 -16q-92 0 -148.5 53.5t-56.5 143.5v149q0 43 15 79.5t42.5 62t65.5 39.5t82 14q46 0 83 -16t61 -45
q50 61 142 61q93 0 149.5 -53t56.5 -142v-121zM339 188v149q0 21 -10 40.5t-30 28t-41 8.5q-37 0 -58.5 -20.5t-21.5 -56.5v-149q0 -23 9.5 -42.5t28.5 -28.5t42 -9q36 0 58.5 22t22.5 58zM464 337v-14h161v14q0 22 -9.5 41.5t-29 29t-42.5 9.5q-37 0 -58.5 -22t-21.5 -58z
" />
    <glyph glyph-name="Racute" unicode="&#x154;" horiz-adv-x="538" 
d="M526 0h-144l-127 275h-62v-275h-130v712h223q45 0 80.5 -12.5t62.5 -36t45.5 -64.5t18.5 -89v-31q0 -34 -11.5 -70.5t-34.5 -66.5t-61 -48zM364 480v27q0 24 -10 42t-29 26t-39 8h-93v-179h95q20 0 38.5 7.5t28 26t9.5 42.5zM387 962l-106 -175h-103l84 175h125z" />
    <glyph glyph-name="racute" unicode="&#x155;" horiz-adv-x="331" 
d="M190 525v-31q33 38 87 38h41v-128h-59q-66 0 -69 -94v-310h-128v525h128zM285 765l-106 -175h-103l84 175h125z" />
    <glyph glyph-name="Rcommaaccent" unicode="&#x156;" horiz-adv-x="540" 
d="M526 0h-144l-127 275h-62v-275h-130v712h223q45 0 80.5 -12.5t62.5 -36t45.5 -64.5t18.5 -89v-31q0 -34 -11.5 -70.5t-34.5 -66.5t-61 -48zM364 480v27q0 24 -10 42t-29 26t-39 8h-93v-179h95q20 0 38.5 7.5t28 26t9.5 42.5zM326 -43l-91 -178h-124l107 178h108z" />
    <glyph glyph-name="rcommaaccent" unicode="&#x157;" horiz-adv-x="331" 
d="M190 525v-31q33 38 87 38h41v-128h-59q-66 0 -69 -94v-310h-128v525h128zM180 -43l-91 -178h-124l107 178h108z" />
    <glyph glyph-name="Rcaron" unicode="&#x158;" horiz-adv-x="538" 
d="M526 0h-144l-127 275h-62v-275h-130v712h223q45 0 80.5 -12.5t62.5 -36t45.5 -64.5t18.5 -89v-31q0 -34 -11.5 -70.5t-34.5 -66.5t-61 -48zM364 480v27q0 24 -10 42t-29 26t-39 8h-93v-179h95q20 0 38.5 7.5t28 26t9.5 42.5zM97 951h107l55 -71l56 71h105l-118 -171h-84z
" />
    <glyph glyph-name="rcaron" unicode="&#x159;" horiz-adv-x="331" 
d="M190 525v-31q33 38 87 38h41v-128h-59q-66 0 -69 -94v-310h-128v525h128zM5 761h107l55 -71l56 71h105l-118 -171h-84z" />
    <glyph glyph-name="Sacute" unicode="&#x15a;" horiz-adv-x="511" 
d="M479 197q0 -43 -15.5 -76.5t-40 -60t-70 -48t-103.5 -21.5q-37 0 -75.5 12t-70.5 40t-53.5 73.5t-21.5 105.5h130q0 -48 25.5 -76t66.5 -28q44 0 71 22t27 57q0 20 -9.5 37.5t-39.5 34.5q-29 17 -78 41t-66 33q-50 26 -80.5 71.5t-30.5 108.5q0 52 26 98.5t76.5 71
t106.5 24.5q47 0 87 -16.5t69 -46t44.5 -70t15.5 -87.5h-130q0 43 -24.5 68t-61.5 25q-33 0 -56 -19.5t-23 -48.5q0 -43 40 -63l148 -74q116 -63 116 -188zM393 962l-106 -175h-103l84 175h125z" />
    <glyph glyph-name="sacute" unicode="&#x15b;" horiz-adv-x="475" 
d="M442 167q0 -54 -25 -92.5t-71.5 -61t-110.5 -22.5q-31 0 -65 8.5t-64 30t-51.5 58.5t-24.5 90h128q2 -33 21.5 -53.5t56.5 -20.5q38 0 59 12.5t21 35.5q0 29 -40 42l-103 30q-40 12 -71.5 35.5t-45 53t-13.5 58.5t10.5 58t34.5 52t61.5 37t86.5 14q84 0 137.5 -43.5
t61.5 -126.5h-129q-3 57 -71 57q-26 0 -46 -11t-20 -31q0 -25 37 -35l115 -33q37 -12 66.5 -34.5t42 -51t12.5 -56.5zM342 765l-106 -175h-103l84 175h125z" />
    <glyph glyph-name="Scaron" unicode="&#x160;" horiz-adv-x="511" 
d="M479 197q0 -43 -15.5 -76.5t-40 -60t-70 -48t-103.5 -21.5q-37 0 -75.5 12t-70.5 40t-53.5 73.5t-21.5 105.5h130q0 -48 25.5 -76t66.5 -28q44 0 71 22t27 57q0 20 -9.5 37.5t-39.5 34.5q-29 17 -78 41t-66 33q-50 26 -80.5 71.5t-30.5 108.5q0 52 26 98.5t76.5 71
t106.5 24.5q47 0 87 -16.5t69 -46t44.5 -70t15.5 -87.5h-130q0 43 -24.5 68t-61.5 25q-33 0 -56 -19.5t-23 -48.5q0 -43 40 -63l148 -74q116 -63 116 -188zM95 951h107l55 -71l56 71h105l-118 -171h-84z" />
    <glyph glyph-name="scaron" unicode="&#x161;" horiz-adv-x="475" 
d="M442 167q0 -54 -25 -92.5t-71.5 -61t-110.5 -22.5q-31 0 -65 8.5t-64 30t-51.5 58.5t-24.5 90h128q2 -33 21.5 -53.5t56.5 -20.5q38 0 59 12.5t21 35.5q0 29 -40 42l-103 30q-40 12 -71.5 35.5t-45 53t-13.5 58.5t10.5 58t34.5 52t61.5 37t86.5 14q84 0 137.5 -43.5
t61.5 -126.5h-129q-3 57 -71 57q-26 0 -46 -11t-20 -31q0 -25 37 -35l115 -33q37 -12 66.5 -34.5t42 -51t12.5 -56.5zM76 761h107l55 -71l56 71h105l-118 -171h-84z" />
    <glyph glyph-name="Tcommaaccent" unicode="&#x162;" horiz-adv-x="465" 
d="M457 583h-159v-583h-130v583h-159v129h448v-129zM286 -43l-91 -178h-124l107 178h108z" />
    <glyph glyph-name="tcommaaccent" unicode="&#x163;" horiz-adv-x="349" 
d="M5 410v115h89v176h128v-176h97v-115h-97v-266q0 -9 6 -16t16 -7h71v-121h-78q-28 0 -55 8.5t-47 26.5t-30.5 47t-10.5 67v261h-89zM312 -43l-91 -178h-124l107 178h108z" />
    <glyph glyph-name="Tcaron" unicode="&#x164;" horiz-adv-x="465" 
d="M457 583h-159v-583h-130v583h-159v129h448v-129zM71 951h107l55 -71l56 71h105l-118 -171h-84z" />
    <glyph glyph-name="tcaron" unicode="&#x165;" horiz-adv-x="519" 
d="M6 410v115h89v176h128v-176h97v-115h-97v-266q0 -9 6 -16t16 -7h71v-121h-78q-28 0 -55 8.5t-47 26.5t-30.5 47t-10.5 67v261h-89zM487 547h-101v206h101v-206z" />
    <glyph glyph-name="Umacron" unicode="&#x16a;" horiz-adv-x="534" 
d="M482 197q0 -30 -12 -70.5t-43 -74t-72.5 -47.5t-86.5 -14t-81.5 12.5t-64.5 36t-48.5 66t-20.5 92.5v514h130v-514q0 -33 17.5 -51.5t36.5 -23t31 -4.5q29 0 50 13.5t27.5 31t6.5 34.5v514h130v-515zM427 790h-321v94h321v-94z" />
    <glyph glyph-name="umacron" unicode="&#x16b;" horiz-adv-x="525" 
d="M335 0v28q-19 -16 -46.5 -25.5t-56.5 -9.5q-27 0 -57 9t-58.5 34.5t-43 67t-14.5 85.5v336h128v-336q0 -22 7.5 -40t25 -26.5t37.5 -8.5q32 0 55 23t23 59v329h128v-525h-128zM425 604h-321v94h321v-94z" />
    <glyph glyph-name="Uring" unicode="&#x16e;" horiz-adv-x="534" 
d="M482 197q0 -30 -12 -70.5t-43 -74t-72.5 -47.5t-86.5 -14t-81.5 12.5t-64.5 36t-48.5 66t-20.5 92.5v514h130v-514q0 -33 17.5 -51.5t36.5 -23t31 -4.5q29 0 50 13.5t27.5 31t6.5 34.5v514h130v-515zM386 856q0 -34 -20 -64t-48 -42t-51 -12q-22 0 -49.5 12t-48 42
t-20.5 64q0 35 20.5 65t48 41.5t49.5 11.5q23 0 51 -11.5t48 -41t20 -65.5zM227 856q0 -17 12 -29t29 -12t29 12t12 29t-12 29t-29 12t-29 -12t-12 -29z" />
    <glyph glyph-name="uring" unicode="&#x16f;" horiz-adv-x="525" 
d="M335 0v28q-19 -16 -46.5 -25.5t-56.5 -9.5q-27 0 -57 9t-58.5 34.5t-43 67t-14.5 85.5v336h128v-336q0 -22 7.5 -40t25 -26.5t37.5 -8.5q32 0 55 23t23 59v329h128v-525h-128zM383 666q0 -34 -20 -64t-48 -42t-51 -12q-22 0 -49.5 12t-48 42t-20.5 64q0 35 20.5 65
t48 41.5t49.5 11.5q23 0 51 -11.5t48 -41t20 -65.5zM224 666q0 -17 12 -29t29 -12t29 12t12 29t-12 29t-29 12t-29 -12t-12 -29z" />
    <glyph glyph-name="Uhungarumlaut" unicode="&#x170;" horiz-adv-x="546" 
d="M482 197q0 -30 -12 -70.5t-43 -74t-72.5 -47.5t-86.5 -14t-81.5 12.5t-64.5 36t-48.5 66t-20.5 92.5v514h130v-514q0 -33 17.5 -51.5t36.5 -23t31 -4.5q29 0 50 13.5t27.5 31t6.5 34.5v514h130v-515zM337 946l-105 -176h-100l86 176h119zM502 946l-105 -176h-100l85 176
h120z" />
    <glyph glyph-name="uhungarumlaut" unicode="&#x171;" horiz-adv-x="525" 
d="M335 0v28q-19 -16 -46.5 -25.5t-56.5 -9.5q-27 0 -57 9t-58.5 34.5t-43 67t-14.5 85.5v336h128v-336q0 -22 7.5 -40t25 -26.5t37.5 -8.5q32 0 55 23t23 59v329h128v-525h-128zM325 755l-105 -176h-100l86 176h119zM490 755l-105 -176h-100l85 176h120z" />
    <glyph glyph-name="Uogonek" unicode="&#x172;" horiz-adv-x="533" 
d="M482 197q0 -30 -12 -70.5t-43 -74t-72.5 -47.5t-86.5 -14t-81.5 12.5t-64.5 36t-48.5 66t-20.5 92.5v514h130v-514q0 -33 17.5 -51.5t36.5 -23t31 -4.5q29 0 50 13.5t27.5 31t6.5 34.5v514h130v-515zM297 -221l-91 178h108l107 -178h-124z" />
    <glyph glyph-name="uogonek" unicode="&#x173;" horiz-adv-x="525" 
d="M335 0v28q-19 -16 -46.5 -25.5t-56.5 -9.5q-27 0 -57 9t-58.5 34.5t-43 67t-14.5 85.5v336h128v-336q0 -22 7.5 -40t25 -26.5t37.5 -8.5q32 0 55 23t23 59v329h128v-525h-128zM439 -221l-91 178h108l107 -178h-124z" />
    <glyph glyph-name="Ydieresis" unicode="&#x178;" horiz-adv-x="521" 
d="M513 712l-187 -454v-258h-130v260l-187 452h142l110 -285l111 285h141zM427 784h-120v133h120v-133zM217 784h-120v133h120v-133z" />
    <glyph glyph-name="Zacute" unicode="&#x179;" horiz-adv-x="449" 
d="M437 0h-424v102l253 481h-239v129h396v-100l-252 -483h266v-129zM373 962l-106 -175h-103l84 175h125z" />
    <glyph glyph-name="zacute" unicode="&#x17a;" horiz-adv-x="436" 
d="M413 0h-389v97l210 310h-202v118h362v-97l-210 -310h229v-118zM338 765l-106 -175h-103l84 175h125z" />
    <glyph glyph-name="Zdotaccent" unicode="&#x17b;" horiz-adv-x="449" 
d="M437 0h-424v102l253 481h-239v129h396v-100l-252 -483h266v-129zM289 770h-126v141h126v-141z" />
    <glyph glyph-name="zdotaccent" unicode="&#x17c;" horiz-adv-x="425" 
d="M402 0h-389v97l210 310h-202v118h362v-97l-210 -310h229v-118zM276 587h-126v141h126v-141z" />
    <glyph glyph-name="Zcaron" unicode="&#x17d;" horiz-adv-x="449" 
d="M437 0h-424v102l253 481h-239v129h396v-100l-252 -483h266v-129zM63 951h107l55 -71l56 71h105l-118 -171h-84z" />
    <glyph glyph-name="zcaron" unicode="&#x17e;" horiz-adv-x="436" 
d="M413 0h-389v97l210 310h-202v118h362v-97l-210 -310h229v-118zM63 761h107l55 -71l56 71h105l-118 -171h-84z" />
    <glyph glyph-name="florin" unicode="&#x192;" horiz-adv-x="319" 
d="M301 407h-91v-457q0 -75 -39.5 -118t-116.5 -43h-53v118h56q8 0 16.5 7t8.5 23v470h-80v118h80v15q0 75 39.5 118t116.5 43h63v-118h-66q-8 0 -16.5 -7t-8.5 -23v-28h91v-118z" />
    <glyph glyph-name="Scommaaccent" unicode="&#x218;" horiz-adv-x="511" 
d="M479 197q0 -43 -15.5 -76.5t-40 -60t-70 -48t-103.5 -21.5q-37 0 -75.5 12t-70.5 40t-53.5 73.5t-21.5 105.5h130q0 -48 25.5 -76t66.5 -28q44 0 71 22t27 57q0 20 -9.5 37.5t-39.5 34.5q-29 17 -78 41t-66 33q-50 26 -80.5 71.5t-30.5 108.5q0 52 26 98.5t76.5 71
t106.5 24.5q47 0 87 -16.5t69 -46t44.5 -70t15.5 -87.5h-130q0 43 -24.5 68t-61.5 25q-33 0 -56 -19.5t-23 -48.5q0 -43 40 -63l148 -74q116 -63 116 -188zM322 -43l-91 -178h-124l107 178h108z" />
    <glyph glyph-name="scommaaccent" unicode="&#x219;" horiz-adv-x="475" 
d="M442 167q0 -54 -25 -92.5t-71.5 -61t-110.5 -22.5q-31 0 -65 8.5t-64 30t-51.5 58.5t-24.5 90h128q2 -33 21.5 -53.5t56.5 -20.5q38 0 59 12.5t21 35.5q0 29 -40 42l-103 30q-40 12 -71.5 35.5t-45 53t-13.5 58.5t10.5 58t34.5 52t61.5 37t86.5 14q84 0 137.5 -43.5
t61.5 -126.5h-129q-3 57 -71 57q-26 0 -46 -11t-20 -31q0 -25 37 -35l115 -33q37 -12 66.5 -34.5t42 -51t12.5 -56.5zM318 -43l-91 -178h-124l107 178h108z" />
    <glyph glyph-name="circumflex" unicode="&#x2c6;" horiz-adv-x="477" 
d="M399 590h-107l-55 71l-56 -71h-105l118 171h84z" />
    <glyph glyph-name="caron" unicode="&#x2c7;" horiz-adv-x="477" 
d="M76 761h107l55 -71l56 71h105l-118 -171h-84z" />
    <glyph glyph-name="breve" unicode="&#x2d8;" horiz-adv-x="477" 
d="M239 573q-51 0 -87 20.5t-56 56t-23 87.5h102q4 -73 64 -73t64 73h102q-3 -52 -23 -87.5t-56 -56t-87 -20.5z" />
    <glyph glyph-name="dotaccent" unicode="&#x2d9;" horiz-adv-x="252" 
d="M189 587h-126v141h126v-141z" />
    <glyph glyph-name="ring" unicode="&#x2da;" horiz-adv-x="363" 
d="M300 666q0 -34 -20 -64t-48 -42t-51 -12q-22 0 -49.5 12t-48 42t-20.5 64q0 35 20.5 65t48 41.5t49.5 11.5q23 0 51 -11.5t48 -41t20 -65.5zM141 666q0 -17 12 -29t29 -12t29 12t12 29t-12 29t-29 12t-29 -12t-12 -29z" />
    <glyph glyph-name="ogonek" unicode="&#x2db;" horiz-adv-x="340" 
d="M154 -221l-91 178h108l107 -178h-124z" />
    <glyph glyph-name="tilde" unicode="&#x2dc;" horiz-adv-x="483" 
d="M349 720l67 -65q-30 -30 -58.5 -48.5t-60.5 -18.5q-21 0 -58.5 18.5t-50.5 18.5q-7 0 -16 -4t-35 -30l-68 64q66 68 118 68q21 0 58.5 -18.5t50.5 -18.5q21 0 53 34z" />
    <glyph glyph-name="hungarumlaut" unicode="&#x2dd;" horiz-adv-x="565" 
d="M303 755l-105 -176h-100l86 176h119zM468 755l-105 -176h-100l85 176h120z" />
    <glyph glyph-name="pi" unicode="&#x3c0;" horiz-adv-x="568" 
d="M354 144v263h-124v-407h-126v407h-82v118h538v-118h-80v-267q0 -26 21 -26h52v-119h-56q-38 0 -72 14.5t-52.5 50t-18.5 84.5z" />
    <glyph glyph-name="endash" unicode="&#x2013;" horiz-adv-x="554" 
d="M492 227h-429v106h429v-106z" />
    <glyph glyph-name="emdash" unicode="&#x2014;" horiz-adv-x="780" 
d="M718 227h-655v106h655v-106z" />
    <glyph glyph-name="quoteleft" unicode="&#x2018;" horiz-adv-x="254" 
d="M110 753h104l-48 -228h-121z" />
    <glyph glyph-name="quoteright" unicode="&#x2019;" horiz-adv-x="253" 
d="M151 525h-102l45 228h120z" />
    <glyph glyph-name="quotesinglbase" unicode="&#x201a;" horiz-adv-x="241" 
d="M141 -111h-102l45 228h120z" />
    <glyph glyph-name="quotedblleft" unicode="&#x201c;" horiz-adv-x="449" 
d="M297 753h102l-47 -228h-120zM108 753h104l-49 -228h-120z" />
    <glyph glyph-name="quotedblright" unicode="&#x201d;" horiz-adv-x="448" 
d="M139 525h-102l45 228h120zM328 525h-104l46 228h121z" />
    <glyph glyph-name="quotedblbase" unicode="&#x201e;" horiz-adv-x="448" 
d="M139 -111h-102l45 228h120zM328 -111h-104l46 228h121z" />
    <glyph glyph-name="dagger" unicode="&#x2020;" horiz-adv-x="430" 
d="M267 -51h-106v478h-103v105h103v205h106v-205h106v-105h-106v-478z" />
    <glyph glyph-name="daggerdbl" unicode="&#x2021;" horiz-adv-x="430" 
d="M267 -51h-106v206h-102v105h102v168h-102v105h102v204h106v-204h105v-105h-105v-168h105v-105h-105v-206z" />
    <glyph glyph-name="bullet" unicode="&#x2022;" horiz-adv-x="368" 
d="M306 340q0 -36 -20.5 -66.5t-49 -42.5t-51.5 -12q-51 0 -86.5 35.5t-35.5 85.5q0 51 35.5 87t86.5 36q24 0 52 -12t48.5 -43t20.5 -68z" />
    <glyph glyph-name="ellipsis" unicode="&#x2026;" horiz-adv-x="632" 
d="M574 0h-129v138h129v-138zM380 0h-128v138h128v-138zM188 0h-129v138h129v-138z" />
    <glyph glyph-name="perthousand" unicode="&#x2030;" horiz-adv-x="1202" 
d="M1140 147q0 -63 -39.5 -100.5t-103.5 -37.5t-103 37.5t-39 100.5v93q0 64 39 102.5t103 38.5q65 0 104 -38t39 -103v-93zM1032 148v93q0 34 -35 34q-34 0 -34 -34v-93q0 -33 34 -33q35 0 35 33zM347 446q0 -63 -39.5 -100.5t-103.5 -37.5t-103 37.5t-39 100.5v93
q0 64 39 102.5t103 38.5q65 0 104 -38t39 -103v-93zM239 447v93q0 34 -35 34q-34 0 -34 -34v-93q0 -33 34 -33q35 0 35 33zM602 749l-260 -799h-90l261 799h89zM789 147q0 -63 -39.5 -100.5t-103.5 -37.5t-103 37.5t-39 100.5v93q0 64 39 102.5t103 38.5q65 0 104 -38
t39 -103v-93zM681 148v93q0 34 -35 34q-34 0 -34 -34v-93q0 -33 34 -33q35 0 35 33z" />
    <glyph glyph-name="guilsinglleft" unicode="&#x2039;" horiz-adv-x="296" 
d="M244 32l-231 230l231 233v-147l-84 -86l84 -84v-146z" />
    <glyph glyph-name="guilsinglright" unicode="&#x203a;" horiz-adv-x="295" 
d="M283 262l-230 -230v146l85 84l-85 86v147z" />
    <glyph glyph-name="fraction" unicode="&#x2044;" horiz-adv-x="565" 
d="M503 687l-321 -687h-119l322 687h118z" />
    <glyph glyph-name="Euro" unicode="&#x20ac;" horiz-adv-x="541" 
d="M388 199h130q0 -29 -10.5 -64t-34.5 -67.5t-66 -54t-101 -21.5t-103.5 23.5t-71.5 72.5t-27 110v33h-75v106h75v43h-75v106h75v29q0 59 27.5 107.5t73 71.5t105.5 23t105.5 -23.5t73 -72.5t27.5 -108h-128q0 24 -10 41.5t-29.5 25.5t-38.5 8q-34 0 -55 -18t-21 -56v-28
h124v-106h-124v-43h124v-106h-124v-33q0 -39 21.5 -58t54.5 -19q19 0 38.5 8.5t29.5 27t10 42.5z" />
    <glyph glyph-name="trademark" unicode="&#x2122;" horiz-adv-x="690" 
d="M628 302h-85v208l-24 -116h-63l-24 116v-208h-85v391h104l37 -131l34 131h106v-391zM325 606h-88v-304h-86v304h-88v87h262v-87z" />
    <glyph glyph-name="uni2126" unicode="&#x2126;" horiz-adv-x="559" 
d="M67 515q0 28 12 67.5t43.5 72.5t73 47.5t86.5 14.5q43 0 83.5 -14.5t69.5 -44.5t45 -69t16 -75v-307q0 -62 -44 -102h72v-105h-216v114q58 10 58 75v324q0 38 -24.5 57t-59.5 19q-21 0 -42 -8t-32 -26t-11 -42v-324q0 -62 55 -74v-115h-216v105h75q-44 40 -44 103v307z
" />
    <glyph glyph-name="partialdiff" unicode="&#x2202;" horiz-adv-x="514" 
d="M238 454q22 0 46.5 -8t43.5 -21l-1 71q-1 44 -35 63t-72 19v124q32 0 68 -7t66.5 -24.5t53 -44t34 -59.5t11.5 -61v-322q0 -27 -10 -59.5t-33.5 -63t-64 -50t-96.5 -19.5q-43 0 -82.5 14t-67 43t-42 65.5t-14.5 71.5v72q0 29 10.5 62.5t34 64t61.5 50t89 19.5zM327 189
v68q0 23 -10 41t-29.5 25.5t-38.5 7.5t-39 -7.5t-30.5 -25.5t-10.5 -41v-68q0 -23 10.5 -40.5t30.5 -25.5t39 -8q28 0 47 12.5t25 28.5t6 33z" />
    <glyph glyph-name="uni2206" unicode="&#x2206;" horiz-adv-x="532" 
d="M10 0l179 712h154l180 -712h-513zM266 530l-100 -405h199z" />
    <glyph glyph-name="product" unicode="&#x220f;" horiz-adv-x="568" 
d="M506 0h-130v583h-183v-583h-130v712h443v-712z" />
    <glyph glyph-name="summation" unicode="&#x2211;" horiz-adv-x="467" 
d="M396 365l-188 -236h237v-129h-424v102l215 260l-212 250v100h418v-129h-232z" />
    <glyph glyph-name="minus" unicode="&#x2212;" horiz-adv-x="540" 
d="M463 227h-385v106h385v-106z" />
    <glyph glyph-name="radical" unicode="&#x221a;" horiz-adv-x="592" 
d="M59 325h115l102 -371l203 733h115l-248 -886h-140z" />
    <glyph glyph-name="infinity" unicode="&#x221e;" horiz-adv-x="804" 
d="M402 181q-27 -44 -70 -72.5t-90 -28.5q-79 0 -131 56t-52 143q0 86 52 141.5t131 55.5q23 0 52.5 -10t59 -34.5t48.5 -54.5q27 44 69 71.5t92 27.5q79 0 131 -55.5t52 -141.5q0 -87 -52 -143t-131 -56q-22 0 -51.5 10t-59.5 35t-50 56zM491 317l-27 -39l27 -40
q34 -51 69 -51q17 0 36 9t31 32t12 51q0 38 -21.5 64t-57.5 26q-33 0 -69 -52zM245 369q-17 0 -36 -9t-31 -31.5t-12 -49.5q0 -39 21.5 -65.5t57.5 -26.5q35 0 69 51l27 40l-27 39q-36 52 -69 52z" />
    <glyph glyph-name="integral" unicode="&#x222b;" horiz-adv-x="283" 
d="M66 -63v603q0 75 39.5 118t116.5 43h63v-118h-66q-8 0 -16.5 -7t-8.5 -23v-603q0 -75 -39.5 -118t-116.5 -43h-53v118h56q8 0 16.5 7t8.5 23z" />
    <glyph glyph-name="approxequal" unicode="&#x2248;" horiz-adv-x="541" 
d="M398 450l81 -62q-40 -38 -72 -60.5t-70 -22.5q-25 0 -69.5 20.5t-67.5 20.5q-10 0 -22 -8t-38 -35l-77 63q37 37 68.5 60t70.5 23q25 0 69 -21t68 -21q8 0 20 8.5t39 34.5zM398 293l81 -62q-40 -38 -72 -60.5t-70 -22.5q-25 0 -69.5 20.5t-67.5 20.5q-10 0 -22 -8
t-38 -35l-77 63q37 37 68.5 60t70.5 23q25 0 69 -21t68 -21q8 0 20 8.5t39 34.5z" />
    <glyph glyph-name="notequal" unicode="&#x2260;" horiz-adv-x="564" 
d="M480 151h-202l-97 -211h-118l98 211h-73v105h123l30 65h-153v105h203l94 201h117l-94 -201h72v-105h-121l-32 -65h153v-105z" />
    <glyph glyph-name="lessequal" unicode="&#x2264;" horiz-adv-x="474" 
d="M417 131h-153l-238 238l261 261h152l-261 -261zM436 0h-387v105h387v-105z" />
    <glyph glyph-name="greaterequal" unicode="&#x2265;" horiz-adv-x="475" 
d="M450 369l-240 -238h-151l238 237l-261 262h152zM425 0h-386v105h386v-105z" />
    <glyph glyph-name="lozenge" unicode="&#x25ca;" horiz-adv-x="520" 
d="M42 354l157 358h113l157 -358l-157 -354h-113zM173 354l82 -193l85 193l-84 196z" />
    <glyph glyph-name="uniFB01" unicode="&#xfb01;" horiz-adv-x="584" 
d="M307 410h-91v-410h-128v410h-80v115h80v15q0 75 39.5 118t116.5 43h63v-118h-66q-8 0 -16.5 -7t-8.5 -23v-28h91v-115zM522 0h-128v525h128v-525zM525 569h-134v142h134v-142z" />
    <glyph glyph-name="uniFB02" unicode="&#xfb02;" horiz-adv-x="596" 
d="M305 410h-91v-410h-128v410h-80v115h80v15q0 75 39.5 118t116.5 43h63v-118h-66q-8 0 -16.5 -7t-8.5 -23v-28h91v-115zM386 149v552h128v-555q0 -11 5.5 -18t15.5 -7h51v-121h-57q-77 0 -110 34.5t-33 114.5z" />
    <glyph glyph-name="glyph316" horiz-adv-x="250" 
 />
    </font>
</defs>
</svg>
